<svg version="1.1" id="Layer_1" xmlns="http://www.w3.org/2000/svg" xmlns:xlink="http://www.w3.org/1999/xlink" x="0px" y="0px"
	 width="100%" viewBox="0 0 2993 480" enable-background="new 0 0 2993 480" xml:space="preserve">
<path fill="#FFFFFF" opacity="1.000000" stroke="none" 
	d="
M204.000000,0.999999 
	C1133.943726,1.000000 2063.887451,1.000000 2993.915527,1.000000 
	C2993.915527,160.933945 2993.915527,320.867950 2993.915527,480.901001 
	C1996.333374,480.901001 998.666687,480.901001 1.000000,480.901001 
	C1.000000,392.551300 1.000000,304.223267 1.355319,215.548553 
	C2.135951,215.878235 2.702426,216.504105 2.965227,217.238632 
	C6.475553,227.049835 11.395587,235.866516 20.333628,241.821655 
	C25.825695,245.480835 31.381083,249.044968 35.961212,252.033905 
	C35.654270,260.823792 33.814476,269.290771 35.364235,277.083649 
	C40.915310,304.996918 63.919125,319.790924 89.502441,320.973480 
	C93.591217,321.162476 97.696236,321.000000 102.000000,321.000000 
	C102.000000,323.430389 102.000000,325.245148 102.000000,327.059875 
	C102.000000,361.883789 101.969925,396.707733 102.043579,431.531494 
	C102.051498,435.275635 102.501831,439.041290 103.027336,442.757294 
	C104.118050,450.470001 112.107559,456.687622 119.807037,455.997833 
	C128.569504,455.212799 134.992126,448.693939 134.995667,440.520142 
	C135.007263,413.860687 135.000000,387.201263 135.000000,360.541809 
	C135.000000,358.767700 135.000000,356.993591 135.000000,355.025513 
	C145.380478,358.051361 155.345306,360.538483 165.707733,357.974487 
	C174.295486,355.849548 182.796707,353.369873 191.402588,351.326721 
	C193.697403,350.781860 196.575439,350.497925 198.605164,351.400208 
	C209.148422,356.086914 220.230606,358.658905 231.606445,358.793884 
	C239.283554,358.885010 246.983871,357.020081 255.000000,355.988159 
	C255.000000,357.020294 255.000000,358.807800 255.000000,360.595276 
	C255.000000,387.254730 255.181198,413.916077 254.900330,440.572571 
	C254.803879,449.727264 265.181671,458.243591 275.103363,455.461670 
	C283.111023,453.216431 287.995850,446.568085 287.997314,437.799652 
	C288.003601,400.643066 288.000000,363.486450 288.000000,326.329865 
	C288.000000,324.584625 288.000000,322.839355 288.000000,320.813904 
	C308.241425,322.162384 326.111755,318.391449 340.538696,303.988708 
	C355.307678,289.244476 357.517883,271.456543 353.196655,252.171310 
	C395.243347,234.423340 400.836792,187.609390 368.931030,161.113037 
	C370.803528,157.399689 372.825775,153.713333 374.556763,149.894974 
	C379.433167,139.138000 380.686676,128.024307 377.179230,116.615845 
	C370.864685,96.076759 356.459076,84.201050 336.116272,79.093575 
	C331.080261,77.829170 326.416321,77.189285 327.916992,70.175835 
	C328.158661,69.046494 327.213470,67.708046 327.026947,66.435471 
	C324.524811,49.364250 315.042786,37.161186 300.224487,29.096804 
	C284.024353,20.280396 266.915192,19.847523 249.561844,25.226685 
	C246.310608,26.234501 244.833099,25.786913 242.231995,23.148512 
	C236.665054,17.501776 230.432022,12.180746 223.611252,8.201247 
	C217.689468,4.746234 210.582932,3.321828 204.000000,0.999999 
M539.500000,364.000000 
	C549.753296,363.667572 560.041138,363.753967 570.252136,362.909973 
	C588.052734,361.438629 605.002747,356.604675 620.112976,346.886139 
	C632.083313,339.187073 641.486755,329.194122 647.308899,315.659302 
	C652.199951,304.289032 652.225891,292.689545 651.934021,280.917084 
	C651.615967,268.087250 646.986938,256.557770 639.633118,246.201889 
	C629.956421,232.574814 616.229919,224.845444 599.899658,220.332443 
	C601.431641,219.420242 602.451843,218.571350 603.625427,218.151718 
	C614.269531,214.345886 623.005005,208.154709 630.336731,199.362762 
	C642.544067,184.724106 645.329895,167.492355 642.594543,149.934402 
	C638.872559,126.043144 622.718567,111.410141 601.217896,101.937737 
	C581.346313,93.183006 560.203003,91.463348 539.043091,91.164932 
	C498.724121,90.596306 458.391388,91.000000 418.064392,91.000000 
	C416.463531,91.000000 414.862640,91.000000 413.295807,91.000000 
	C413.295807,182.299805 413.295807,273.022552 413.295807,364.000000 
	C455.227417,364.000000 496.863708,364.000000 539.500000,364.000000 
M1815.048584,322.636200 
	C1817.021729,319.101410 1819.455322,315.743408 1820.891357,312.002441 
	C1828.757690,291.508087 1832.239746,270.474396 1830.196533,248.347382 
	C1828.621826,231.296600 1825.102661,215.053955 1816.971191,199.970612 
	C1805.840576,179.323639 1789.421143,164.729095 1767.118164,156.964523 
	C1750.795288,151.281876 1734.076904,150.841629 1717.146362,152.998444 
	C1704.616699,154.594620 1693.557251,159.584854 1683.880005,167.643417 
	C1679.790283,171.048920 1675.823364,174.601974 1670.945312,178.829010 
	C1670.945312,169.907440 1670.945312,162.051865 1670.945312,154.335312 
	C1647.637451,154.335312 1624.904785,154.335312 1602.351562,154.335312 
	C1602.351562,249.399826 1602.351562,344.128693 1602.351562,438.627350 
	C1625.437988,438.627350 1648.171387,438.627350 1671.186035,438.627350 
	C1671.186035,405.025604 1671.186035,371.795929 1671.186035,338.191650 
	C1677.707764,346.232025 1685.293335,352.276794 1693.932983,356.973602 
	C1714.449951,368.127441 1736.402222,368.331512 1758.380737,363.817017 
	C1782.934082,358.773590 1801.753174,344.776855 1815.048584,322.636200 
M1120.000000,172.500000 
	C1120.000000,236.258835 1120.000000,300.017670 1120.000000,363.666870 
	C1143.356445,363.666870 1166.090088,363.666870 1189.000000,363.666870 
	C1189.000000,346.014587 1188.978149,328.694763 1189.036987,311.375214 
	C1189.042358,309.809479 1189.022461,307.725677 1189.939087,306.763977 
	C1196.445679,299.937317 1203.193359,293.340485 1210.413818,286.120880 
	C1212.279907,289.780670 1213.699951,292.821960 1215.339355,295.740143 
	C1227.457642,317.310669 1239.707397,338.808350 1251.657471,360.471375 
	C1253.156494,363.188751 1254.504761,364.090057 1257.521118,364.074127 
	C1282.353760,363.942932 1307.187134,364.002441 1332.020386,363.992950 
	C1333.275879,363.992462 1334.531372,363.889252 1336.572510,363.799225 
	C1334.265259,360.087067 1332.296387,356.995880 1330.402588,353.859436 
	C1320.291138,337.113922 1310.259766,320.319794 1300.084473,303.613281 
	C1286.791870,281.788605 1273.341431,260.059723 1260.164917,238.165558 
	C1259.418945,236.925873 1259.866089,233.955078 1260.894531,232.818222 
	C1270.433594,222.274094 1280.152100,211.888962 1289.957886,201.590485 
	C1300.031006,191.011108 1310.313477,180.631058 1320.398315,170.062683 
	C1325.242798,164.985809 1329.843262,159.676224 1334.586670,154.436188 
	C1334.177002,154.253204 1333.910156,154.029724 1333.643066,154.029510 
	C1308.476685,154.008713 1283.310181,153.968185 1258.144287,154.088226 
	C1256.576416,154.095688 1254.633789,154.993958 1253.514648,156.121887 
	C1248.157471,161.520966 1243.060547,167.176941 1237.804443,172.677841 
	C1222.571655,188.620270 1207.313965,204.538864 1192.031250,220.433441 
	C1191.352295,221.139572 1190.332764,221.518295 1188.827393,222.447250 
	C1188.827393,173.165085 1188.827393,124.738159 1188.827393,76.289047 
	C1165.732666,76.289047 1142.999756,76.289047 1120.000000,76.289047 
	C1120.000000,108.218246 1120.000000,139.859131 1120.000000,172.500000 
M1490.930420,333.685516 
	C1490.930420,344.094818 1490.930420,354.504089 1490.930420,364.788330 
	C1514.356812,364.788330 1536.967529,364.788330 1559.787109,364.788330 
	C1559.787109,294.524841 1559.787109,224.472977 1559.787109,154.228607 
	C1536.845825,154.228607 1514.117676,154.228607 1491.000732,154.228607 
	C1491.000732,155.245667 1491.007202,156.037308 1490.999878,156.828812 
	C1490.667358,192.742203 1490.502563,228.658447 1489.895996,264.567200 
	C1489.716187,275.211182 1485.827881,284.980621 1478.527710,292.845581 
	C1469.949463,302.087585 1459.104126,305.367523 1446.505737,304.105499 
	C1437.029053,303.156128 1425.131714,294.607666 1421.987915,285.603973 
	C1418.934814,276.859650 1418.003418,267.830292 1418.001953,258.652161 
	C1417.996826,225.661575 1418.000000,192.671005 1418.000000,159.680420 
	C1418.000000,157.901672 1418.000000,156.122925 1418.000000,154.262726 
	C1394.776733,154.262726 1372.048584,154.262726 1349.000000,154.262726 
	C1349.000000,156.322662 1349.000000,158.123566 1349.000000,159.924484 
	C1349.000000,202.578964 1349.047119,245.233551 1348.964966,287.887878 
	C1348.945923,297.761505 1349.865967,307.343719 1352.835083,316.899506 
	C1359.819214,339.377045 1373.685547,355.020844 1395.977173,363.052948 
	C1409.960571,368.091492 1424.247803,367.744873 1438.689209,366.027435 
	C1454.798340,364.111725 1468.399658,357.148804 1479.705200,345.700684 
	C1483.487061,341.871307 1486.723999,337.503937 1490.930420,333.685516 
M872.000000,345.499390 
	C871.666687,301.246765 871.734070,256.985260 870.752014,212.747040 
	C870.463562,199.752609 864.148560,188.087738 855.604858,178.186005 
	C840.039795,160.146896 818.965149,152.915421 796.296753,151.296021 
	C774.825867,149.762161 753.212952,150.478439 732.015015,155.913727 
	C714.789795,160.330414 698.028931,165.846481 681.555176,173.641144 
	C684.770081,181.810074 687.829163,189.763611 691.028259,197.660461 
	C694.203491,205.498138 697.519470,213.278778 700.569519,220.594528 
	C712.146912,216.566849 723.268250,212.254990 734.659729,208.845627 
	C749.289307,204.467117 764.212952,202.123657 779.448975,206.006622 
	C790.800415,208.899612 799.022156,215.311218 802.322388,226.893494 
	C803.289307,230.286972 803.379944,233.930176 803.947632,238.000000 
	C802.265259,238.000000 800.653809,238.000000 799.042358,238.000000 
	C780.543091,238.000000 762.042542,238.129288 743.544983,237.951431 
	C732.479492,237.845032 721.769653,239.802338 711.327942,243.075150 
	C692.279907,249.045471 677.983704,260.594238 671.582886,280.034912 
	C667.718750,291.771271 667.999573,304.024719 670.039917,316.118286 
	C674.300232,341.369995 691.302368,356.831207 713.988647,363.966766 
	C726.134766,367.787140 738.679138,367.715424 751.230042,366.991669 
	C764.395996,366.232483 776.866089,362.927429 787.856140,355.501007 
	C793.471924,351.706207 798.453369,346.972809 804.090210,342.362091 
	C804.090210,349.604736 804.090210,356.656982 804.090210,363.710449 
	C826.936279,363.710449 849.335327,363.710449 872.000000,363.710449 
	C872.000000,357.781738 872.000000,352.140259 872.000000,345.499390 
M901.452087,301.958557 
	C910.213013,324.889282 924.926514,342.659485 946.926392,353.970886 
	C974.064148,367.923859 1003.082581,369.044617 1032.093994,363.640717 
	C1059.225952,358.587006 1081.665405,344.807495 1096.313965,320.279633 
	C1098.495361,316.627014 1098.295654,314.656006 1094.317871,312.621094 
	C1087.847046,309.310699 1081.664185,305.439636 1075.336548,301.846039 
	C1065.824463,296.443817 1056.292114,291.076813 1046.755127,285.687378 
	C1038.383667,301.922241 1021.858582,311.952026 1000.479065,309.150818 
	C984.914856,307.111572 974.915344,297.924835 969.604370,284.624756 
	C962.419556,266.631561 962.440186,248.186081 971.881470,230.312836 
	C981.328369,212.429001 999.331970,207.380676 1015.873657,210.371109 
	C1028.444458,212.643677 1037.737549,220.013870 1045.862793,229.341202 
	C1046.492798,230.064468 1048.537476,230.389359 1049.413574,229.928314 
	C1054.842651,227.071167 1060.147827,223.974747 1065.452026,220.885178 
	C1076.329590,214.549271 1087.180298,208.167664 1097.935669,201.867218 
	C1088.660034,185.083374 1075.633301,172.548050 1058.983398,164.067719 
	C1033.209351,150.940262 1005.807617,149.218369 977.789856,154.023422 
	C952.949463,158.283569 932.272766,169.973846 916.573181,189.938461 
	C903.674500,206.341263 896.728271,225.280350 895.197998,245.817612 
	C893.805908,264.501953 894.563782,283.258423 901.452087,301.958557 
M2769.000000,174.504852 
	C2769.000000,262.586517 2769.000000,350.668182 2769.000000,438.681519 
	C2779.665039,438.681519 2789.731689,438.681519 2800.270264,438.681519 
	C2800.270264,400.059937 2800.270264,361.755066 2800.270264,322.973145 
	C2804.368652,328.426300 2807.679932,333.689758 2811.821289,338.188873 
	C2826.442383,354.071411 2845.056152,362.848236 2866.198730,364.765320 
	C2889.280273,366.858246 2911.894531,364.325317 2932.234375,351.378174 
	C2947.417480,341.713562 2958.765625,328.661255 2966.608887,312.672729 
	C2972.872314,299.904327 2975.838135,286.032288 2976.872070,271.944092 
	C2978.006104,256.489563 2976.589600,241.095428 2971.935547,226.225937 
	C2963.621338,199.660736 2947.508789,179.569397 2922.042480,167.531158 
	C2901.747070,157.937164 2880.259766,156.910416 2858.657959,160.332443 
	C2840.572754,163.197372 2824.925049,171.855225 2812.315430,185.317307 
	C2808.094238,189.823944 2804.668945,195.076416 2800.042969,201.072662 
	C2800.042969,186.630295 2800.042969,173.459412 2800.042969,160.292511 
	C2789.388184,160.292511 2779.322266,160.292511 2769.000000,160.292511 
	C2769.000000,164.891083 2769.000000,169.199615 2769.000000,174.504852 
M1882.980835,216.486908 
	C1900.625366,228.554306 1921.030151,233.786407 1941.044800,240.024200 
	C1958.724609,245.534363 1976.724487,250.245560 1991.812134,261.925018 
	C2004.622803,271.841888 2008.487305,287.213654 2005.199951,301.309692 
	C2001.723877,316.214508 1990.787109,324.069122 1977.433838,328.908997 
	C1961.915283,334.533691 1945.830322,335.185455 1929.502441,333.076599 
	C1917.206055,331.488495 1905.532715,328.069702 1894.232178,323.059113 
	C1879.110596,316.354431 1865.526489,307.356750 1853.213989,295.918610 
	C1848.230103,305.442993 1843.380493,314.710541 1838.547852,323.945770 
	C1839.815552,324.829254 1840.687622,325.272766 1841.354492,325.925873 
	C1854.338623,338.641174 1869.866577,347.210938 1886.480469,354.192139 
	C1900.032104,359.886597 1914.140869,363.651215 1928.639648,364.749268 
	C1940.463623,365.644745 1952.490601,364.799927 1964.363159,363.888428 
	C1980.563110,362.644684 1995.802124,357.614685 2009.428101,348.755768 
	C2021.514771,340.897552 2031.141357,330.709198 2036.669434,316.910339 
	C2042.122803,303.297791 2041.977661,289.398132 2039.953369,275.351624 
	C2037.583740,258.908234 2028.457642,246.548477 2015.416016,236.838715 
	C1997.276611,223.333359 1975.819702,217.608871 1954.728760,210.934494 
	C1937.063232,205.344147 1918.989990,200.548462 1903.876221,188.984100 
	C1892.704590,180.436203 1887.281616,165.257843 1890.854248,151.372437 
	C1894.109863,138.719116 1903.329468,132.371490 1914.428223,128.074890 
	C1929.771606,122.134956 1945.707153,121.990807 1961.850830,123.938782 
	C1977.758179,125.858246 1992.852173,130.220352 2007.085815,137.564331 
	C2011.904175,140.050400 2016.711060,142.558609 2021.704102,145.150650 
	C2026.357544,135.537903 2030.845581,126.266975 2035.447754,116.760094 
	C2031.364990,114.366867 2027.719971,111.997871 2023.875977,110.014931 
	C1999.403076,97.390396 1973.493286,91.418083 1945.838135,91.840065 
	C1924.954590,92.158722 1905.093262,95.497688 1886.845459,106.042213 
	C1876.330933,112.118088 1867.970703,120.327011 1861.930420,131.017166 
	C1855.537109,142.332474 1854.633911,154.494232 1854.961426,167.058777 
	C1855.513916,188.255814 1864.964600,204.350800 1882.980835,216.486908 
M2086.000000,268.500000 
	C2086.000000,300.259491 2086.000000,332.019012 2086.000000,363.666870 
	C2096.692871,363.666870 2106.760986,363.666870 2117.000000,363.666870 
	C2117.000000,335.347961 2116.702148,307.357239 2117.135742,279.377808 
	C2117.328857,266.938049 2118.070068,254.358307 2120.217773,242.132828 
	C2123.276611,224.720749 2132.146729,210.328323 2146.928711,200.004059 
	C2162.000244,189.477646 2179.125000,187.502960 2196.641113,189.294144 
	C2203.789307,190.025085 2211.237305,192.705200 2217.497070,196.319916 
	C2235.560791,206.750961 2242.908691,223.598206 2242.967773,243.892197 
	C2243.079346,282.058105 2243.000000,320.224579 2243.000000,358.390808 
	C2243.000000,360.163086 2243.000000,361.935364 2243.000000,363.704895 
	C2253.615234,363.704895 2263.681885,363.704895 2274.000000,363.704895 
	C2274.000000,361.602081 2274.000000,359.792267 2274.000000,357.982452 
	C2274.000000,317.316223 2273.884033,276.649475 2274.071289,235.984146 
	C2274.126953,223.909561 2272.544434,212.218979 2267.925781,201.094955 
	C2261.168701,184.820786 2250.038574,172.906342 2233.551025,165.705017 
	C2216.012207,158.044571 2197.983154,157.928314 2179.577881,159.983398 
	C2156.724854,162.535126 2138.111572,172.643311 2124.344238,191.217117 
	C2122.030762,194.338287 2120.186768,197.807709 2118.125977,201.116211 
	C2117.769287,201.009949 2117.412354,200.903671 2117.055664,200.797409 
	C2117.055664,159.300797 2117.055664,117.804199 2117.055664,76.289627 
	C2106.396240,76.289627 2096.329590,76.289627 2086.000000,76.289627 
	C2086.000000,140.219254 2086.000000,203.859634 2086.000000,268.500000 
M2533.000000,273.215973 
	C2534.061279,279.626465 2534.508545,286.213013 2536.286621,292.418030 
	C2545.821045,325.690704 2565.997559,349.270447 2599.556396,360.133850 
	C2619.181641,366.486847 2639.149902,366.510773 2659.330811,363.065521 
	C2682.428467,359.122345 2701.926025,348.717407 2719.186768,330.161591 
	C2712.566406,324.878662 2705.949219,319.598267 2699.370117,314.348175 
	C2697.865234,315.594482 2695.108154,317.920929 2692.305908,320.191528 
	C2671.144043,337.337128 2646.665283,342.592957 2620.566406,337.534058 
	C2595.382812,332.652496 2577.828125,317.150696 2568.595215,292.990112 
	C2566.220459,286.775360 2564.999756,280.119690 2563.055908,272.955994 
	C2619.816162,272.955994 2675.216553,272.955994 2731.426025,272.955994 
	C2730.929199,265.965271 2730.221191,259.437805 2730.053467,252.896545 
	C2729.750732,241.083832 2727.705322,229.614960 2723.984375,218.435226 
	C2716.808594,196.875885 2703.982422,179.857498 2683.562744,169.242157 
	C2667.859131,161.078552 2650.988770,158.774307 2633.385986,158.839249 
	C2610.837646,158.922440 2590.431396,164.736343 2572.150391,177.972717 
	C2555.040039,190.361557 2544.261963,206.952408 2537.798340,226.990051 
	C2532.990967,241.893417 2532.936035,257.003174 2533.000000,273.215973 
M2404.093262,338.600922 
	C2402.169678,338.301819 2400.211914,338.141632 2398.327393,337.682678 
	C2373.567139,331.652283 2355.881592,317.274323 2346.767822,293.213593 
	C2344.369385,286.881836 2343.023682,280.151337 2340.974854,272.817017 
	C2397.987549,272.817017 2453.381104,272.817017 2509.453857,272.817017 
	C2508.945801,265.952820 2508.164795,259.569397 2508.066406,253.175522 
	C2507.881592,241.170380 2505.768066,229.519073 2501.931152,218.227005 
	C2494.286377,195.729172 2480.687988,178.278503 2458.731689,167.920029 
	C2443.762695,160.857895 2428.042236,158.923721 2411.661133,158.851196 
	C2388.917236,158.750504 2368.386719,164.813889 2349.933594,178.014038 
	C2333.286865,189.922119 2322.434814,206.160324 2316.135010,225.311371 
	C2310.477783,242.508575 2309.712891,260.284515 2311.939209,278.266571 
	C2313.794189,293.250732 2318.060303,307.387299 2326.072510,320.171967 
	C2342.961426,347.120453 2368.000488,361.547150 2399.110107,364.725586 
	C2413.432129,366.188843 2427.995361,365.665009 2442.397949,362.184082 
	C2463.373779,357.114563 2481.288330,347.375458 2497.386963,329.902313 
	C2490.683350,324.526306 2484.129883,319.270630 2477.544189,313.988983 
	C2468.155518,323.857269 2455.799316,330.890747 2442.039795,335.414948 
	C2429.999756,339.373840 2417.462402,339.356995 2404.093262,338.600922 
z"/>
<path fill="#2C343B" opacity="1.000000" stroke="none" 
	d="
M203.532059,0.999999 
	C210.582932,3.321828 217.689468,4.746234 223.611252,8.201247 
	C230.432022,12.180746 236.665054,17.501776 242.231995,23.148512 
	C244.833099,25.786913 246.310608,26.234501 249.561844,25.226685 
	C266.915192,19.847523 284.024353,20.280396 300.224487,29.096804 
	C315.042786,37.161186 324.524811,49.364250 327.026947,66.435471 
	C327.213470,67.708046 328.158661,69.046494 327.916992,70.175835 
	C326.416321,77.189285 331.080261,77.829170 336.116272,79.093575 
	C356.459076,84.201050 370.864685,96.076759 377.179230,116.615845 
	C380.686676,128.024307 379.433167,139.138000 374.556763,149.894974 
	C372.825775,153.713333 370.803528,157.399689 368.931030,161.113037 
	C400.836792,187.609390 395.243347,234.423340 353.196655,252.171310 
	C357.517883,271.456543 355.307678,289.244476 340.538696,303.988708 
	C326.111755,318.391449 308.241425,322.162384 288.000000,320.813904 
	C288.000000,322.839355 288.000000,324.584625 288.000000,326.329865 
	C288.000000,363.486450 288.003601,400.643066 287.997314,437.799652 
	C287.995850,446.568085 283.111023,453.216431 275.103363,455.461670 
	C265.181671,458.243591 254.803879,449.727264 254.900330,440.572571 
	C255.181198,413.916077 255.000000,387.254730 255.000000,360.595276 
	C255.000000,358.807800 255.000000,357.020294 255.000000,355.988159 
	C246.983871,357.020081 239.283554,358.885010 231.606445,358.793884 
	C220.230606,358.658905 209.148422,356.086914 198.605164,351.400208 
	C196.575439,350.497925 193.697403,350.781860 191.402588,351.326721 
	C182.796707,353.369873 174.295486,355.849548 165.707733,357.974487 
	C155.345306,360.538483 145.380478,358.051361 135.000000,355.025513 
	C135.000000,356.993591 135.000000,358.767700 135.000000,360.541809 
	C135.000000,387.201263 135.007263,413.860687 134.995667,440.520142 
	C134.992126,448.693939 128.569504,455.212799 119.807037,455.997833 
	C112.107559,456.687622 104.118050,450.470001 103.027336,442.757294 
	C102.501831,439.041290 102.051498,435.275635 102.043579,431.531494 
	C101.969925,396.707733 102.000000,361.883789 102.000000,327.059875 
	C102.000000,325.245148 102.000000,323.430389 102.000000,321.000000 
	C97.696236,321.000000 93.591217,321.162476 89.502441,320.973480 
	C63.919125,319.790924 40.915310,304.996918 35.364235,277.083649 
	C33.814476,269.290771 35.654270,260.823792 35.961212,252.033905 
	C31.381083,249.044968 25.825695,245.480835 20.333628,241.821655 
	C11.395587,235.866516 6.475553,227.049835 2.965227,217.238632 
	C2.702426,216.504105 2.135951,215.878235 1.355319,215.100922 
	C1.000000,207.312424 1.000000,199.624832 1.353082,191.352539 
	C5.328126,178.974030 12.294356,169.322021 21.192686,161.269333 
	C19.008102,156.999390 17.018505,153.285904 15.185138,149.496826 
	C7.109937,132.807632 11.302583,109.803413 23.949104,96.376625 
	C33.422932,86.318268 44.927429,80.823502 58.089809,77.892761 
	C59.558113,77.565826 61.356110,76.019714 61.852821,74.628876 
	C62.709461,72.230202 62.654613,69.508018 62.997982,66.923683 
	C65.271271,49.814060 74.631035,37.483047 89.391037,29.330477 
	C105.845749,20.241850 123.239914,19.656889 140.913513,25.482269 
	C143.841660,26.447411 145.168259,26.371019 147.430603,23.497778 
	C154.077225,15.056401 162.427536,8.445318 172.861755,4.995778 
	C177.206635,3.559368 181.618561,2.325803 186.000000,0.999999 
	C191.688034,1.000000 197.376083,1.000000 203.532059,0.999999 
M103.026756,179.067078 
	C103.345566,184.140091 103.760704,189.210464 103.899391,194.288391 
	C103.926132,195.267578 103.122498,196.733887 102.274818,197.201813 
	C91.978920,202.885437 83.060188,210.141327 75.940628,219.554535 
	C68.024940,230.020355 61.865227,240.871872 64.913651,254.914307 
	C67.250381,265.678406 78.245438,278.227325 90.421982,277.104828 
	C101.766113,276.059113 109.232941,269.235748 115.863098,261.223602 
	C119.925270,256.314728 123.027168,250.611221 126.224915,245.772125 
	C130.106888,258.948029 133.637665,272.518951 138.125061,285.765869 
	C143.891556,302.788757 151.699463,318.818268 164.995773,331.484283 
	C182.925690,348.564270 208.022003,348.584290 225.953415,331.531067 
	C240.767776,317.442200 248.580002,299.249725 254.884781,280.398193 
	C258.715515,268.944183 261.393250,257.104584 264.319824,246.420731 
	C270.110291,253.628708 275.652893,261.740906 282.438568,268.628326 
	C289.017395,275.305847 297.318909,278.882385 307.298737,276.277832 
	C321.356384,272.609070 331.003479,253.468033 325.236481,237.692017 
	C318.773621,220.012466 306.255341,207.610275 290.422791,198.238464 
	C287.920807,196.757492 286.733154,196.131561 287.482056,192.518387 
	C288.456146,187.818893 288.331940,182.500778 287.168640,177.824997 
	C284.089020,165.446701 276.036682,157.505142 263.677795,153.770126 
	C261.343628,153.064743 259.016724,150.971283 257.575867,148.899704 
	C249.442505,137.206146 237.879211,133.142334 224.392502,134.271698 
	C221.532516,134.511185 220.551056,133.312897 218.673187,132.314087 
	C213.051788,129.324142 207.447601,125.273880 201.410233,124.310684 
	C189.320877,122.381958 177.889145,125.016182 169.453735,135.125443 
	C168.480621,134.694183 167.778122,134.139221 167.043961,134.093613 
	C153.266937,133.237473 141.669891,137.256561 133.392227,148.980637 
	C132.204468,150.662933 130.381775,152.392349 128.496613,153.006897 
	C115.753502,157.160965 107.163887,165.293976 103.026756,179.067078 
z"/>
<path fill="#FFFFFF" opacity="1.000000" stroke="none" 
	d="
M185.531342,0.999999 
	C181.618561,2.325803 177.206635,3.559368 172.861755,4.995778 
	C162.427536,8.445318 154.077225,15.056401 147.430603,23.497778 
	C145.168259,26.371019 143.841660,26.447411 140.913513,25.482269 
	C123.239914,19.656889 105.845749,20.241850 89.391037,29.330477 
	C74.631035,37.483047 65.271271,49.814060 62.997982,66.923683 
	C62.654613,69.508018 62.709461,72.230202 61.852821,74.628876 
	C61.356110,76.019714 59.558113,77.565826 58.089809,77.892761 
	C44.927429,80.823502 33.422932,86.318268 23.949104,96.376625 
	C11.302583,109.803413 7.109937,132.807632 15.185138,149.496826 
	C17.018505,153.285904 19.008102,156.999390 21.192686,161.269333 
	C12.294356,169.322021 5.328126,178.974030 1.353082,190.883911 
	C1.000000,127.740616 1.000000,64.481232 1.000000,1.000000 
	C62.354050,1.000000 123.708366,1.000000 185.531342,0.999999 
z"/>
<path fill="#2C343B" opacity="1.000000" stroke="none" 
	d="
M539.000000,364.000000 
	C496.863708,364.000000 455.227417,364.000000 413.295807,364.000000 
	C413.295807,273.022552 413.295807,182.299805 413.295807,91.000000 
	C414.862640,91.000000 416.463531,91.000000 418.064392,91.000000 
	C458.391388,91.000000 498.724121,90.596306 539.043091,91.164932 
	C560.203003,91.463348 581.346313,93.183006 601.217896,101.937737 
	C622.718567,111.410141 638.872559,126.043144 642.594543,149.934402 
	C645.329895,167.492355 642.544067,184.724106 630.336731,199.362762 
	C623.005005,208.154709 614.269531,214.345886 603.625427,218.151718 
	C602.451843,218.571350 601.431641,219.420242 599.899658,220.332443 
	C616.229919,224.845444 629.956421,232.574814 639.633118,246.201889 
	C646.986938,256.557770 651.615967,268.087250 651.934021,280.917084 
	C652.225891,292.689545 652.199951,304.289032 647.308899,315.659302 
	C641.486755,329.194122 632.083313,339.187073 620.112976,346.886139 
	C605.002747,356.604675 588.052734,361.438629 570.252136,362.909973 
	C560.041138,363.753967 549.753296,363.667572 539.000000,364.000000 
M566.258118,259.034576 
	C556.625061,253.549881 545.968262,252.266144 535.222534,252.078613 
	C518.283630,251.783005 501.335815,252.000000 484.240784,252.000000 
	C484.240784,271.179657 484.240784,289.907471 484.240784,308.996704 
	C501.934357,308.996704 519.402222,309.385590 536.838806,308.815277 
	C544.360107,308.569244 551.955750,306.855011 559.267944,304.882141 
	C568.935303,302.273804 578.722290,292.213257 578.114563,279.376831 
	C577.698853,270.594696 573.633728,264.387115 566.258118,259.034576 
M484.000000,175.500000 
	C484.000000,183.587601 484.000000,191.675217 484.000000,200.000000 
	C503.045807,200.000000 521.495789,200.048630 539.945007,199.954208 
	C543.183838,199.937653 546.500000,199.661041 549.641846,198.918304 
	C559.212952,196.655594 565.951355,190.686676 568.700256,181.362442 
	C571.543335,171.718521 569.756592,162.662445 561.986755,155.486710 
	C556.191101,150.134277 549.021790,148.169678 541.439148,148.067474 
	C525.132996,147.847687 508.821777,148.000000 492.512634,148.000000 
	C489.747894,148.000000 486.983185,148.000000 484.000000,148.000000 
	C484.000000,157.235321 484.000000,165.867661 484.000000,175.500000 
z"/>
<path fill="#2C343B" opacity="1.000000" stroke="none" 
	d="
M1815.000732,323.008179 
	C1801.753174,344.776855 1782.934082,358.773590 1758.380737,363.817017 
	C1736.402222,368.331512 1714.449951,368.127441 1693.932983,356.973602 
	C1685.293335,352.276794 1677.707764,346.232025 1671.186035,338.191650 
	C1671.186035,371.795929 1671.186035,405.025604 1671.186035,438.627350 
	C1648.171387,438.627350 1625.437988,438.627350 1602.351562,438.627350 
	C1602.351562,344.128693 1602.351562,249.399826 1602.351562,154.335312 
	C1624.904785,154.335312 1647.637451,154.335312 1670.945312,154.335312 
	C1670.945312,162.051865 1670.945312,169.907440 1670.945312,178.829010 
	C1675.823364,174.601974 1679.790283,171.048920 1683.880005,167.643417 
	C1693.557251,159.584854 1704.616699,154.594620 1717.146362,152.998444 
	C1734.076904,150.841629 1750.795288,151.281876 1767.118164,156.964523 
	C1789.421143,164.729095 1805.840576,179.323639 1816.971191,199.970612 
	C1825.102661,215.053955 1828.621826,231.296600 1830.196533,248.347382 
	C1832.239746,270.474396 1828.757690,291.508087 1820.891357,312.002441 
	C1819.455322,315.743408 1817.021729,319.101410 1815.000732,323.008179 
M1760.000000,264.526428 
	C1759.666260,257.788544 1759.901123,250.962784 1758.876099,244.331772 
	C1756.977051,232.046860 1750.898804,221.494034 1740.778076,214.551422 
	C1719.540039,199.982376 1690.035400,205.829788 1677.810059,230.560135 
	C1671.213623,243.903809 1670.546021,257.801392 1672.984009,272.151978 
	C1676.590210,293.379272 1695.335571,312.881592 1721.750977,309.194092 
	C1744.785156,305.978668 1758.468018,286.620697 1760.000000,264.526428 
z"/>
<path fill="#2C343B" opacity="1.000000" stroke="none" 
	d="
M1120.000000,172.000000 
	C1120.000000,139.859131 1120.000000,108.218246 1120.000000,76.289047 
	C1142.999756,76.289047 1165.732666,76.289047 1188.827393,76.289047 
	C1188.827393,124.738159 1188.827393,173.165085 1188.827393,222.447250 
	C1190.332764,221.518295 1191.352295,221.139572 1192.031250,220.433441 
	C1207.313965,204.538864 1222.571655,188.620270 1237.804443,172.677841 
	C1243.060547,167.176941 1248.157471,161.520966 1253.514648,156.121887 
	C1254.633789,154.993958 1256.576416,154.095688 1258.144287,154.088226 
	C1283.310181,153.968185 1308.476685,154.008713 1333.643066,154.029510 
	C1333.910156,154.029724 1334.177002,154.253204 1334.586670,154.436188 
	C1329.843262,159.676224 1325.242798,164.985809 1320.398315,170.062683 
	C1310.313477,180.631058 1300.031006,191.011108 1289.957886,201.590485 
	C1280.152100,211.888962 1270.433594,222.274094 1260.894531,232.818222 
	C1259.866089,233.955078 1259.418945,236.925873 1260.164917,238.165558 
	C1273.341431,260.059723 1286.791870,281.788605 1300.084473,303.613281 
	C1310.259766,320.319794 1320.291138,337.113922 1330.402588,353.859436 
	C1332.296387,356.995880 1334.265259,360.087067 1336.572510,363.799225 
	C1334.531372,363.889252 1333.275879,363.992462 1332.020386,363.992950 
	C1307.187134,364.002441 1282.353760,363.942932 1257.521118,364.074127 
	C1254.504761,364.090057 1253.156494,363.188751 1251.657471,360.471375 
	C1239.707397,338.808350 1227.457642,317.310669 1215.339355,295.740143 
	C1213.699951,292.821960 1212.279907,289.780670 1210.413818,286.120880 
	C1203.193359,293.340485 1196.445679,299.937317 1189.939087,306.763977 
	C1189.022461,307.725677 1189.042358,309.809479 1189.036987,311.375214 
	C1188.978149,328.694763 1189.000000,346.014587 1189.000000,363.666870 
	C1166.090088,363.666870 1143.356445,363.666870 1120.000000,363.666870 
	C1120.000000,300.017670 1120.000000,236.258835 1120.000000,172.000000 
z"/>
<path fill="#2C343B" opacity="1.000000" stroke="none" 
	d="
M1490.570190,333.533997 
	C1486.723999,337.503937 1483.487061,341.871307 1479.705200,345.700684 
	C1468.399658,357.148804 1454.798340,364.111725 1438.689209,366.027435 
	C1424.247803,367.744873 1409.960571,368.091492 1395.977173,363.052948 
	C1373.685547,355.020844 1359.819214,339.377045 1352.835083,316.899506 
	C1349.865967,307.343719 1348.945923,297.761505 1348.964966,287.887878 
	C1349.047119,245.233551 1349.000000,202.578964 1349.000000,159.924484 
	C1349.000000,158.123566 1349.000000,156.322662 1349.000000,154.262726 
	C1372.048584,154.262726 1394.776733,154.262726 1418.000000,154.262726 
	C1418.000000,156.122925 1418.000000,157.901672 1418.000000,159.680420 
	C1418.000000,192.671005 1417.996826,225.661575 1418.001953,258.652161 
	C1418.003418,267.830292 1418.934814,276.859650 1421.987915,285.603973 
	C1425.131714,294.607666 1437.029053,303.156128 1446.505737,304.105499 
	C1459.104126,305.367523 1469.949463,302.087585 1478.527710,292.845581 
	C1485.827881,284.980621 1489.716187,275.211182 1489.895996,264.567200 
	C1490.502563,228.658447 1490.667358,192.742203 1490.999878,156.828812 
	C1491.007202,156.037308 1491.000732,155.245667 1491.000732,154.228607 
	C1514.117676,154.228607 1536.845825,154.228607 1559.787109,154.228607 
	C1559.787109,224.472977 1559.787109,294.524841 1559.787109,364.788330 
	C1536.967529,364.788330 1514.356812,364.788330 1490.930420,364.788330 
	C1490.930420,354.504089 1490.930420,344.094818 1490.570190,333.533997 
z"/>
<path fill="#2C343B" opacity="1.000000" stroke="none" 
	d="
M872.000000,345.999084 
	C872.000000,352.140259 872.000000,357.781738 872.000000,363.710449 
	C849.335327,363.710449 826.936279,363.710449 804.090210,363.710449 
	C804.090210,356.656982 804.090210,349.604736 804.090210,342.362091 
	C798.453369,346.972809 793.471924,351.706207 787.856140,355.501007 
	C776.866089,362.927429 764.395996,366.232483 751.230042,366.991669 
	C738.679138,367.715424 726.134766,367.787140 713.988647,363.966766 
	C691.302368,356.831207 674.300232,341.369995 670.039917,316.118286 
	C667.999573,304.024719 667.718750,291.771271 671.582886,280.034912 
	C677.983704,260.594238 692.279907,249.045471 711.327942,243.075150 
	C721.769653,239.802338 732.479492,237.845032 743.544983,237.951431 
	C762.042542,238.129288 780.543091,238.000000 799.042358,238.000000 
	C800.653809,238.000000 802.265259,238.000000 803.947632,238.000000 
	C803.379944,233.930176 803.289307,230.286972 802.322388,226.893494 
	C799.022156,215.311218 790.800415,208.899612 779.448975,206.006622 
	C764.212952,202.123657 749.289307,204.467117 734.659729,208.845627 
	C723.268250,212.254990 712.146912,216.566849 700.569519,220.594528 
	C697.519470,213.278778 694.203491,205.498138 691.028259,197.660461 
	C687.829163,189.763611 684.770081,181.810074 681.555176,173.641144 
	C698.028931,165.846481 714.789795,160.330414 732.015015,155.913727 
	C753.212952,150.478439 774.825867,149.762161 796.296753,151.296021 
	C818.965149,152.915421 840.039795,160.146896 855.604858,178.186005 
	C864.148560,188.087738 870.463562,199.752609 870.752014,212.747040 
	C871.734070,256.985260 871.666687,301.246765 872.000000,345.999084 
M779.122864,316.965759 
	C781.297852,315.893127 783.487427,314.848816 785.645569,313.743317 
	C800.345581,306.213348 807.101562,291.448853 803.509583,276.000214 
	C786.775574,276.000214 770.213440,275.460602 753.724060,276.318848 
	C748.570068,276.587128 742.093079,279.344055 738.852539,283.182648 
	C729.509583,294.250092 734.578796,310.324982 745.802917,315.925751 
	C756.384644,321.205902 767.349426,320.179138 779.122864,316.965759 
z"/>
<path fill="#2C343B" opacity="1.000000" stroke="none" 
	d="
M901.249329,301.607056 
	C894.563782,283.258423 893.805908,264.501953 895.197998,245.817612 
	C896.728271,225.280350 903.674500,206.341263 916.573181,189.938461 
	C932.272766,169.973846 952.949463,158.283569 977.789856,154.023422 
	C1005.807617,149.218369 1033.209351,150.940262 1058.983398,164.067719 
	C1075.633301,172.548050 1088.660034,185.083374 1097.935669,201.867218 
	C1087.180298,208.167664 1076.329590,214.549271 1065.452026,220.885178 
	C1060.147827,223.974747 1054.842651,227.071167 1049.413574,229.928314 
	C1048.537476,230.389359 1046.492798,230.064468 1045.862793,229.341202 
	C1037.737549,220.013870 1028.444458,212.643677 1015.873657,210.371109 
	C999.331970,207.380676 981.328369,212.429001 971.881470,230.312836 
	C962.440186,248.186081 962.419556,266.631561 969.604370,284.624756 
	C974.915344,297.924835 984.914856,307.111572 1000.479065,309.150818 
	C1021.858582,311.952026 1038.383667,301.922241 1046.755127,285.687378 
	C1056.292114,291.076813 1065.824463,296.443817 1075.336548,301.846039 
	C1081.664185,305.439636 1087.847046,309.310699 1094.317871,312.621094 
	C1098.295654,314.656006 1098.495361,316.627014 1096.313965,320.279633 
	C1081.665405,344.807495 1059.225952,358.587006 1032.093994,363.640717 
	C1003.082581,369.044617 974.064148,367.923859 946.926392,353.970886 
	C924.926514,342.659485 910.213013,324.889282 901.249329,301.607056 
z"/>
<path fill="#2C343B" opacity="1.000000" stroke="none" 
	d="
M2769.000000,174.006500 
	C2769.000000,169.199615 2769.000000,164.891083 2769.000000,160.292511 
	C2779.322266,160.292511 2789.388184,160.292511 2800.042969,160.292511 
	C2800.042969,173.459412 2800.042969,186.630295 2800.042969,201.072662 
	C2804.668945,195.076416 2808.094238,189.823944 2812.315430,185.317307 
	C2824.925049,171.855225 2840.572754,163.197372 2858.657959,160.332443 
	C2880.259766,156.910416 2901.747070,157.937164 2922.042480,167.531158 
	C2947.508789,179.569397 2963.621338,199.660736 2971.935547,226.225937 
	C2976.589600,241.095428 2978.006104,256.489563 2976.872070,271.944092 
	C2975.838135,286.032288 2972.872314,299.904327 2966.608887,312.672729 
	C2958.765625,328.661255 2947.417480,341.713562 2932.234375,351.378174 
	C2911.894531,364.325317 2889.280273,366.858246 2866.198730,364.765320 
	C2845.056152,362.848236 2826.442383,354.071411 2811.821289,338.188873 
	C2807.679932,333.689758 2804.368652,328.426300 2800.270264,322.973145 
	C2800.270264,361.755066 2800.270264,400.059937 2800.270264,438.681519 
	C2789.731689,438.681519 2779.665039,438.681519 2769.000000,438.681519 
	C2769.000000,350.668182 2769.000000,262.586517 2769.000000,174.006500 
M2802.000244,245.596970 
	C2801.666748,247.345184 2801.011475,249.101257 2801.054199,250.840240 
	C2801.268066,259.583954 2800.909424,268.431885 2802.148682,277.042206 
	C2805.027588,297.048767 2814.429688,313.548798 2831.416260,324.996643 
	C2848.810303,336.719177 2867.881104,340.460022 2888.558594,336.047852 
	C2909.674316,331.542175 2925.646240,320.112091 2935.923096,301.163300 
	C2945.581787,283.353638 2947.642090,264.079834 2943.821533,244.536774 
	C2939.278809,221.297104 2926.615234,203.358505 2905.054688,192.604736 
	C2890.016357,185.104004 2873.975586,183.880493 2857.682129,187.071442 
	C2837.956055,190.934570 2822.447266,201.648651 2812.263184,218.829422 
	C2807.589111,226.714706 2805.348389,236.042542 2802.000244,245.596970 
z"/>
<path fill="#2C343B" opacity="1.000000" stroke="none" 
	d="
M1882.680176,216.268036 
	C1864.964600,204.350800 1855.513916,188.255814 1854.961426,167.058777 
	C1854.633911,154.494232 1855.537109,142.332474 1861.930420,131.017166 
	C1867.970703,120.327011 1876.330933,112.118088 1886.845459,106.042213 
	C1905.093262,95.497688 1924.954590,92.158722 1945.838135,91.840065 
	C1973.493286,91.418083 1999.403076,97.390396 2023.875977,110.014931 
	C2027.719971,111.997871 2031.364990,114.366867 2035.447754,116.760094 
	C2030.845581,126.266975 2026.357544,135.537903 2021.704102,145.150650 
	C2016.711060,142.558609 2011.904175,140.050400 2007.085815,137.564331 
	C1992.852173,130.220352 1977.758179,125.858246 1961.850830,123.938782 
	C1945.707153,121.990807 1929.771606,122.134956 1914.428223,128.074890 
	C1903.329468,132.371490 1894.109863,138.719116 1890.854248,151.372437 
	C1887.281616,165.257843 1892.704590,180.436203 1903.876221,188.984100 
	C1918.989990,200.548462 1937.063232,205.344147 1954.728760,210.934494 
	C1975.819702,217.608871 1997.276611,223.333359 2015.416016,236.838715 
	C2028.457642,246.548477 2037.583740,258.908234 2039.953369,275.351624 
	C2041.977661,289.398132 2042.122803,303.297791 2036.669434,316.910339 
	C2031.141357,330.709198 2021.514771,340.897552 2009.428101,348.755768 
	C1995.802124,357.614685 1980.563110,362.644684 1964.363159,363.888428 
	C1952.490601,364.799927 1940.463623,365.644745 1928.639648,364.749268 
	C1914.140869,363.651215 1900.032104,359.886597 1886.480469,354.192139 
	C1869.866577,347.210938 1854.338623,338.641174 1841.354492,325.925873 
	C1840.687622,325.272766 1839.815552,324.829254 1838.547852,323.945770 
	C1843.380493,314.710541 1848.230103,305.442993 1853.213989,295.918610 
	C1865.526489,307.356750 1879.110596,316.354431 1894.232178,323.059113 
	C1905.532715,328.069702 1917.206055,331.488495 1929.502441,333.076599 
	C1945.830322,335.185455 1961.915283,334.533691 1977.433838,328.908997 
	C1990.787109,324.069122 2001.723877,316.214508 2005.199951,301.309692 
	C2008.487305,287.213654 2004.622803,271.841888 1991.812134,261.925018 
	C1976.724487,250.245560 1958.724609,245.534363 1941.044800,240.024200 
	C1921.030151,233.786407 1900.625366,228.554306 1882.680176,216.268036 
z"/>
<path fill="#2C343B" opacity="1.000000" stroke="none" 
	d="
M2086.000000,268.000000 
	C2086.000000,203.859634 2086.000000,140.219254 2086.000000,76.289627 
	C2096.329590,76.289627 2106.396240,76.289627 2117.055664,76.289627 
	C2117.055664,117.804199 2117.055664,159.300797 2117.055664,200.797409 
	C2117.412354,200.903671 2117.769287,201.009949 2118.125977,201.116211 
	C2120.186768,197.807709 2122.030762,194.338287 2124.344238,191.217117 
	C2138.111572,172.643311 2156.724854,162.535126 2179.577881,159.983398 
	C2197.983154,157.928314 2216.012207,158.044571 2233.551025,165.705017 
	C2250.038574,172.906342 2261.168701,184.820786 2267.925781,201.094955 
	C2272.544434,212.218979 2274.126953,223.909561 2274.071289,235.984146 
	C2273.884033,276.649475 2274.000000,317.316223 2274.000000,357.982452 
	C2274.000000,359.792267 2274.000000,361.602081 2274.000000,363.704895 
	C2263.681885,363.704895 2253.615234,363.704895 2243.000000,363.704895 
	C2243.000000,361.935364 2243.000000,360.163086 2243.000000,358.390808 
	C2243.000000,320.224579 2243.079346,282.058105 2242.967773,243.892197 
	C2242.908691,223.598206 2235.560791,206.750961 2217.497070,196.319916 
	C2211.237305,192.705200 2203.789307,190.025085 2196.641113,189.294144 
	C2179.125000,187.502960 2162.000244,189.477646 2146.928711,200.004059 
	C2132.146729,210.328323 2123.276611,224.720749 2120.217773,242.132828 
	C2118.070068,254.358307 2117.328857,266.938049 2117.135742,279.377808 
	C2116.702148,307.357239 2117.000000,335.347961 2117.000000,363.666870 
	C2106.760986,363.666870 2096.692871,363.666870 2086.000000,363.666870 
	C2086.000000,332.019012 2086.000000,300.259491 2086.000000,268.000000 
z"/>
<path fill="#2C343B" opacity="1.000000" stroke="none" 
	d="
M2533.000000,272.741089 
	C2532.936035,257.003174 2532.990967,241.893417 2537.798340,226.990051 
	C2544.261963,206.952408 2555.040039,190.361557 2572.150391,177.972717 
	C2590.431396,164.736343 2610.837646,158.922440 2633.385986,158.839249 
	C2650.988770,158.774307 2667.859131,161.078552 2683.562744,169.242157 
	C2703.982422,179.857498 2716.808594,196.875885 2723.984375,218.435226 
	C2727.705322,229.614960 2729.750732,241.083832 2730.053467,252.896545 
	C2730.221191,259.437805 2730.929199,265.965271 2731.426025,272.955994 
	C2675.216553,272.955994 2619.816162,272.955994 2563.055908,272.955994 
	C2564.999756,280.119690 2566.220459,286.775360 2568.595215,292.990112 
	C2577.828125,317.150696 2595.382812,332.652496 2620.566406,337.534058 
	C2646.665283,342.592957 2671.144043,337.337128 2692.305908,320.191528 
	C2695.108154,317.920929 2697.865234,315.594482 2699.370117,314.348175 
	C2705.949219,319.598267 2712.566406,324.878662 2719.186768,330.161591 
	C2701.926025,348.717407 2682.428467,359.122345 2659.330811,363.065521 
	C2639.149902,366.510773 2619.181641,366.486847 2599.556396,360.133850 
	C2565.997559,349.270447 2545.821045,325.690704 2536.286621,292.418030 
	C2534.508545,286.213013 2534.061279,279.626465 2533.000000,272.741089 
M2674.500000,249.000000 
	C2683.601074,249.000000 2692.702393,249.000000 2702.140625,249.000000 
	C2701.623779,235.310196 2697.852295,223.276779 2690.768066,212.295731 
	C2684.709717,202.904831 2676.277100,196.008194 2666.362061,191.233032 
	C2653.505859,185.041656 2639.521973,183.627380 2625.614990,185.257004 
	C2617.109619,186.253647 2608.360840,188.653595 2600.670654,192.381760 
	C2585.644287,199.666168 2575.178223,211.800079 2568.930176,227.423889 
	C2566.183594,234.292404 2564.077881,241.263489 2564.066406,249.000000 
	C2600.931885,249.000000 2637.215820,249.000000 2674.500000,249.000000 
z"/>
<path fill="#2C343B" opacity="1.000000" stroke="none" 
	d="
M2404.518555,338.780579 
	C2417.462402,339.356995 2429.999756,339.373840 2442.039795,335.414948 
	C2455.799316,330.890747 2468.155518,323.857269 2477.544189,313.988983 
	C2484.129883,319.270630 2490.683350,324.526306 2497.386963,329.902313 
	C2481.288330,347.375458 2463.373779,357.114563 2442.397949,362.184082 
	C2427.995361,365.665009 2413.432129,366.188843 2399.110107,364.725586 
	C2368.000488,361.547150 2342.961426,347.120453 2326.072510,320.171967 
	C2318.060303,307.387299 2313.794189,293.250732 2311.939209,278.266571 
	C2309.712891,260.284515 2310.477783,242.508575 2316.135010,225.311371 
	C2322.434814,206.160324 2333.286865,189.922119 2349.933594,178.014038 
	C2368.386719,164.813889 2388.917236,158.750504 2411.661133,158.851196 
	C2428.042236,158.923721 2443.762695,160.857895 2458.731689,167.920029 
	C2480.687988,178.278503 2494.286377,195.729172 2501.931152,218.227005 
	C2505.768066,229.519073 2507.881592,241.170380 2508.066406,253.175522 
	C2508.164795,259.569397 2508.945801,265.952820 2509.453857,272.817017 
	C2453.381104,272.817017 2397.987549,272.817017 2340.974854,272.817017 
	C2343.023682,280.151337 2344.369385,286.881836 2346.767822,293.213593 
	C2355.881592,317.274323 2373.567139,331.652283 2398.327393,337.682678 
	C2400.211914,338.141632 2402.169678,338.301819 2404.518555,338.780579 
M2425.500000,249.000000 
	C2443.593018,249.000000 2461.685791,249.000000 2480.052979,249.000000 
	C2479.916992,235.594971 2476.019043,223.801804 2469.399902,213.074997 
	C2463.401123,203.354095 2454.674072,196.130615 2444.391357,191.229462 
	C2431.508789,185.089050 2417.547607,183.627335 2403.639404,185.256210 
	C2395.133789,186.252365 2386.384033,188.645996 2378.691650,192.369492 
	C2363.658936,199.645966 2353.202148,211.790848 2346.934570,227.400024 
	C2344.177002,234.268463 2342.069092,241.244690 2342.069824,249.000000 
	C2369.918457,249.000000 2397.209229,249.000000 2425.500000,249.000000 
z"/>
<path fill="#FFFFFF" opacity="1.000000" stroke="none" 
	d="
M103.152771,178.644455 
	C107.163887,165.293976 115.753502,157.160965 128.496613,153.006897 
	C130.381775,152.392349 132.204468,150.662933 133.392227,148.980637 
	C141.669891,137.256561 153.266937,133.237473 167.043961,134.093613 
	C167.778122,134.139221 168.480621,134.694183 169.453735,135.125443 
	C177.889145,125.016182 189.320877,122.381958 201.410233,124.310684 
	C207.447601,125.273880 213.051788,129.324142 218.673187,132.314087 
	C220.551056,133.312897 221.532516,134.511185 224.392502,134.271698 
	C237.879211,133.142334 249.442505,137.206146 257.575867,148.899704 
	C259.016724,150.971283 261.343628,153.064743 263.677795,153.770126 
	C276.036682,157.505142 284.089020,165.446701 287.168640,177.824997 
	C288.331940,182.500778 288.456146,187.818893 287.482056,192.518387 
	C286.733154,196.131561 287.920807,196.757492 290.422791,198.238464 
	C306.255341,207.610275 318.773621,220.012466 325.236481,237.692017 
	C331.003479,253.468033 321.356384,272.609070 307.298737,276.277832 
	C297.318909,278.882385 289.017395,275.305847 282.438568,268.628326 
	C275.652893,261.740906 270.110291,253.628708 264.319824,246.420731 
	C261.393250,257.104584 258.715515,268.944183 254.884781,280.398193 
	C248.580002,299.249725 240.767776,317.442200 225.953415,331.531067 
	C208.022003,348.584290 182.925690,348.564270 164.995773,331.484283 
	C151.699463,318.818268 143.891556,302.788757 138.125061,285.765869 
	C133.637665,272.518951 130.106888,258.948029 126.224915,245.772125 
	C123.027168,250.611221 119.925270,256.314728 115.863098,261.223602 
	C109.232941,269.235748 101.766113,276.059113 90.421982,277.104828 
	C78.245438,278.227325 67.250381,265.678406 64.913651,254.914307 
	C61.865227,240.871872 68.024940,230.020355 75.940628,219.554535 
	C83.060188,210.141327 91.978920,202.885437 102.274818,197.201813 
	C103.122498,196.733887 103.926132,195.267578 103.899391,194.288391 
	C103.760704,189.210464 103.345566,184.140091 103.152771,178.644455 
M147.910858,162.540268 
	C147.599777,163.610809 147.132111,164.663071 147.004623,165.755051 
	C146.438065,170.607132 144.198212,172.879852 138.950729,172.113144 
	C136.300705,171.725952 133.275482,171.969193 130.772186,172.887604 
	C123.933472,175.396591 121.528946,179.858963 121.985657,187.506958 
	C122.370323,193.948624 127.991798,198.714539 133.486176,199.847916 
	C138.207886,200.821899 140.520721,201.727798 141.358215,207.689697 
	C143.741211,224.654083 147.078415,241.547211 151.160995,258.193481 
	C155.806778,277.136139 161.002884,296.093903 173.067856,312.055573 
	C178.397873,319.107056 184.935150,324.615723 194.496994,325.022949 
	C205.654709,325.498230 212.969147,319.014313 218.902985,310.948792 
	C227.786499,298.873993 233.608185,285.204681 237.053482,270.635590 
	C240.583572,255.707932 244.006210,240.741241 246.886902,225.679001 
	C248.477081,217.364410 248.858276,208.818619 249.825851,200.000076 
	C250.603317,200.000076 251.732697,200.007828 252.861923,199.998856 
	C262.900604,199.919128 269.063629,194.214905 269.000000,185.065735 
	C268.940918,176.576721 263.368134,172.000122 253.090210,172.000000 
	C245.814407,171.999908 245.690628,172.026718 244.017853,164.303635 
	C242.482697,157.215820 234.093781,151.284958 226.558487,153.835419 
	C222.461823,155.222015 218.438507,156.825317 213.689026,158.588120 
	C212.622574,156.614365 211.218323,154.108170 209.900406,151.557373 
	C206.910660,145.770706 202.165405,143.046707 195.676819,142.972061 
	C188.956863,142.894760 184.108154,145.717102 181.029358,151.683228 
	C179.736633,154.188293 178.330338,156.634750 177.063705,158.947144 
	C173.738235,157.381927 171.089249,156.174881 168.474808,154.897217 
	C160.086914,150.798080 151.004379,154.520020 147.910858,162.540268 
M106.508621,240.992249 
	C112.102730,231.682373 116.235100,221.796661 119.250031,210.742798 
	C107.450157,214.441269 99.115677,221.464569 91.872566,229.774155 
	C86.804611,235.588272 82.097229,241.986313 84.120171,250.451065 
	C84.731972,253.011017 86.258530,256.304169 88.305885,257.270660 
	C89.969513,258.056030 93.725960,256.531433 95.347885,254.860336 
	C99.289818,250.798965 102.529648,246.056122 106.508621,240.992249 
M307.000000,246.553543 
	C306.003082,243.212845 305.760681,239.337112 303.850769,236.643875 
	C299.986969,231.195450 295.667633,225.885193 290.700653,221.454575 
	C285.453827,216.774384 279.536224,212.603027 271.110565,210.954147 
	C274.658783,219.564468 277.188568,227.601303 281.174866,234.835526 
	C285.050476,241.868820 290.152618,248.299774 295.295166,254.516296 
	C296.825562,256.366302 301.264374,258.116058 302.676880,257.225494 
	C304.878082,255.837677 305.675842,252.175430 306.963135,249.427750 
	C307.218536,248.882660 307.000000,248.115509 307.000000,246.553543 
z"/>
<path fill="#FFFFFF" opacity="1.000000" stroke="none" 
	d="
M566.586304,259.220764 
	C573.633728,264.387115 577.698853,270.594696 578.114563,279.376831 
	C578.722290,292.213257 568.935303,302.273804 559.267944,304.882141 
	C551.955750,306.855011 544.360107,308.569244 536.838806,308.815277 
	C519.402222,309.385590 501.934357,308.996704 484.240784,308.996704 
	C484.240784,289.907471 484.240784,271.179657 484.240784,252.000000 
	C501.335815,252.000000 518.283630,251.783005 535.222534,252.078613 
	C545.968262,252.266144 556.625061,253.549881 566.586304,259.220764 
z"/>
<path fill="#FFFFFF" opacity="1.000000" stroke="none" 
	d="
M484.000000,175.000000 
	C484.000000,165.867661 484.000000,157.235321 484.000000,148.000000 
	C486.983185,148.000000 489.747894,148.000000 492.512634,148.000000 
	C508.821777,148.000000 525.132996,147.847687 541.439148,148.067474 
	C549.021790,148.169678 556.191101,150.134277 561.986755,155.486710 
	C569.756592,162.662445 571.543335,171.718521 568.700256,181.362442 
	C565.951355,190.686676 559.212952,196.655594 549.641846,198.918304 
	C546.500000,199.661041 543.183838,199.937653 539.945007,199.954208 
	C521.495789,200.048630 503.045807,200.000000 484.000000,200.000000 
	C484.000000,191.675217 484.000000,183.587601 484.000000,175.000000 
z"/>
<path fill="#FFFFFF" opacity="1.000000" stroke="none" 
	d="
M1760.000000,264.982971 
	C1758.468018,286.620697 1744.785156,305.978668 1721.750977,309.194092 
	C1695.335571,312.881592 1676.590210,293.379272 1672.984009,272.151978 
	C1670.546021,257.801392 1671.213623,243.903809 1677.810059,230.560135 
	C1690.035400,205.829788 1719.540039,199.982376 1740.778076,214.551422 
	C1750.898804,221.494034 1756.977051,232.046860 1758.876099,244.331772 
	C1759.901123,250.962784 1759.666260,257.788544 1760.000000,264.982971 
z"/>
<path fill="#FFFFFF" opacity="1.000000" stroke="none" 
	d="
M778.712463,316.985901 
	C767.349426,320.179138 756.384644,321.205902 745.802917,315.925751 
	C734.578796,310.324982 729.509583,294.250092 738.852539,283.182648 
	C742.093079,279.344055 748.570068,276.587128 753.724060,276.318848 
	C770.213440,275.460602 786.775574,276.000214 803.509583,276.000214 
	C807.101562,291.448853 800.345581,306.213348 785.645569,313.743317 
	C783.487427,314.848816 781.297852,315.893127 778.712463,316.985901 
z"/>
<path fill="#FFFFFF" opacity="1.000000" stroke="none" 
	d="
M2802.001953,245.156586 
	C2805.348389,236.042542 2807.589111,226.714706 2812.263184,218.829422 
	C2822.447266,201.648651 2837.956055,190.934570 2857.682129,187.071442 
	C2873.975586,183.880493 2890.016357,185.104004 2905.054688,192.604736 
	C2926.615234,203.358505 2939.278809,221.297104 2943.821533,244.536774 
	C2947.642090,264.079834 2945.581787,283.353638 2935.923096,301.163300 
	C2925.646240,320.112091 2909.674316,331.542175 2888.558594,336.047852 
	C2867.881104,340.460022 2848.810303,336.719177 2831.416260,324.996643 
	C2814.429688,313.548798 2805.027588,297.048767 2802.148682,277.042206 
	C2800.909424,268.431885 2801.268066,259.583954 2801.054199,250.840240 
	C2801.011475,249.101257 2801.666748,247.345184 2802.001953,245.156586 
z"/>
<path fill="#FFFFFF" opacity="1.000000" stroke="none" 
	d="
M2674.000000,249.000000 
	C2637.215820,249.000000 2600.931885,249.000000 2564.066406,249.000000 
	C2564.077881,241.263489 2566.183594,234.292404 2568.930176,227.423889 
	C2575.178223,211.800079 2585.644287,199.666168 2600.670654,192.381760 
	C2608.360840,188.653595 2617.109619,186.253647 2625.614990,185.257004 
	C2639.521973,183.627380 2653.505859,185.041656 2666.362061,191.233032 
	C2676.277100,196.008194 2684.709717,202.904831 2690.768066,212.295731 
	C2697.852295,223.276779 2701.623779,235.310196 2702.140625,249.000000 
	C2692.702393,249.000000 2683.601074,249.000000 2674.000000,249.000000 
z"/>
<path fill="#FFFFFF" opacity="1.000000" stroke="none" 
	d="
M2425.000000,249.000000 
	C2397.209229,249.000000 2369.918457,249.000000 2342.069824,249.000000 
	C2342.069092,241.244690 2344.177002,234.268463 2346.934570,227.400024 
	C2353.202148,211.790848 2363.658936,199.645966 2378.691650,192.369492 
	C2386.384033,188.645996 2395.133789,186.252365 2403.639404,185.256210 
	C2417.547607,183.627335 2431.508789,185.089050 2444.391357,191.229462 
	C2454.674072,196.130615 2463.401123,203.354095 2469.399902,213.074997 
	C2476.019043,223.801804 2479.916992,235.594971 2480.052979,249.000000 
	C2461.685791,249.000000 2443.593018,249.000000 2425.000000,249.000000 
z"/>
<path fill="#2C343B" opacity="1.000000" stroke="none" 
	d="
M147.951874,162.144302 
	C151.004379,154.520020 160.086914,150.798080 168.474808,154.897217 
	C171.089249,156.174881 173.738235,157.381927 177.063705,158.947144 
	C178.330338,156.634750 179.736633,154.188293 181.029358,151.683228 
	C184.108154,145.717102 188.956863,142.894760 195.676819,142.972061 
	C202.165405,143.046707 206.910660,145.770706 209.900406,151.557373 
	C211.218323,154.108170 212.622574,156.614365 213.689026,158.588120 
	C218.438507,156.825317 222.461823,155.222015 226.558487,153.835419 
	C234.093781,151.284958 242.482697,157.215820 244.017853,164.303635 
	C245.690628,172.026718 245.814407,171.999908 253.090210,172.000000 
	C263.368134,172.000122 268.940918,176.576721 269.000000,185.065735 
	C269.063629,194.214905 262.900604,199.919128 252.861923,199.998856 
	C251.732697,200.007828 250.603317,200.000076 249.825851,200.000076 
	C248.858276,208.818619 248.477081,217.364410 246.886902,225.679001 
	C244.006210,240.741241 240.583572,255.707932 237.053482,270.635590 
	C233.608185,285.204681 227.786499,298.873993 218.902985,310.948792 
	C212.969147,319.014313 205.654709,325.498230 194.496994,325.022949 
	C184.935150,324.615723 178.397873,319.107056 173.067856,312.055573 
	C161.002884,296.093903 155.806778,277.136139 151.160995,258.193481 
	C147.078415,241.547211 143.741211,224.654083 141.358215,207.689697 
	C140.520721,201.727798 138.207886,200.821899 133.486176,199.847916 
	C127.991798,198.714539 122.370323,193.948624 121.985657,187.506958 
	C121.528946,179.858963 123.933472,175.396591 130.772186,172.887604 
	C133.275482,171.969193 136.300705,171.725952 138.950729,172.113144 
	C144.198212,172.879852 146.438065,170.607132 147.004623,165.755051 
	C147.132111,164.663071 147.599777,163.610809 147.951874,162.144302 
z"/>
<path fill="#2C343B" opacity="1.000000" stroke="none" 
	d="
M106.280457,241.290009 
	C102.529648,246.056122 99.289818,250.798965 95.347885,254.860336 
	C93.725960,256.531433 89.969513,258.056030 88.305885,257.270660 
	C86.258530,256.304169 84.731972,253.011017 84.120171,250.451065 
	C82.097229,241.986313 86.804611,235.588272 91.872566,229.774155 
	C99.115677,221.464569 107.450157,214.441269 119.250031,210.742798 
	C116.235100,221.796661 112.102730,231.682373 106.280457,241.290009 
z"/>
<path fill="#2C343B" opacity="1.000000" stroke="none" 
	d="
M307.000000,247.002151 
	C307.000000,248.115509 307.218536,248.882660 306.963135,249.427750 
	C305.675842,252.175430 304.878082,255.837677 302.676880,257.225494 
	C301.264374,258.116058 296.825562,256.366302 295.295166,254.516296 
	C290.152618,248.299774 285.050476,241.868820 281.174866,234.835526 
	C277.188568,227.601303 274.658783,219.564468 271.110565,210.954147 
	C279.536224,212.603027 285.453827,216.774384 290.700653,221.454575 
	C295.667633,225.885193 299.986969,231.195450 303.850769,236.643875 
	C305.760681,239.337112 306.003082,243.212845 307.000000,247.002151 
z"/>
</svg>