<svg xmlns="http://www.w3.org/2000/svg" viewBox="0 0 512 512" width="2500" height="2500"><path fill="#e17107" d="M292.5 405.6l.7-25.1c.1-3.8 1.1-91.1-86.2-113.2-5.2-1.3-8.8-6-8.9-11.3 0-5.4 3.5-10.1 8.7-11.5 86.6-23.4 86.3-112.3 86.3-113.2l-.3-22.3 16.5 15c2.3 2.1 57.1 52.7 59.8 127.2 1.7 47.5-18.3 93.3-59.3 136.3l-17.3 18.1zm-59.3-150c55.1 23.2 72 72.6 77.1 102 27.5-34.1 40.8-69.5 39.5-105.7-1.5-43.9-24.3-79.4-39.7-98.5-5.3 29-22.3 78.2-76.9 102.2zM88 265.6H70.9c-5.3 0-9.7-4.3-9.7-9.7 0-5.3 4.3-9.7 9.7-9.7H88c5.3 0 9.7 4.3 9.7 9.7 0 5.3-4.3 9.7-9.7 9.7zm-48.1 0H22.7c-5.3 0-9.7-4.3-9.7-9.7 0-5.3 4.3-9.7 9.7-9.7h17.2c5.3 0 9.7 4.3 9.7 9.7-.1 5.3-4.4 9.7-9.7 9.7zm94.4 0h-20.5c-5.3 0-9.7-4.3-9.7-9.7 0-5.3 4.3-9.7 9.7-9.7h20.5c5.3 0 9.7 4.3 9.7 9.7-.1 5.3-4.4 9.7-9.7 9.7zm42.8 0h-17.2c-5.3 0-9.7-4.3-9.7-9.7 0-5.3 4.3-9.7 9.7-9.7h17.2c5.3 0 9.7 4.3 9.7 9.7 0 5.3-4.3 9.7-9.7 9.7zm72.2-118.4c-14.5 0-26.2-11.7-26.2-26.2 0 14.5-11.7 26.2-26.2 26.2 14.5 0 26.2 11.7 26.2 26.2 0-14.5 11.7-26.2 26.2-26.2zM441.2 293.8c-15.6 0-28.2-12.6-28.2-28.2 0 15.6-12.6 28.2-28.2 28.2 15.6 0 28.2 12.6 28.2 28.2 0-15.6 12.6-28.2 28.2-28.2zM223.1 351.1c-20 0-36.3-16.2-36.3-36.3 0 20-16.2 36.3-36.3 36.3 20 0 36.3 16.2 36.3 36.3.1-20.1 16.3-36.3 36.3-36.3z"/><path fill="#e17107" d="M280.9 458.7c-99.3 0-183.3-70.8-199.9-168.6-1-5.8 2.9-11.4 8.8-12.4 5.9-.9 11.4 2.9 12.4 8.8 14.9 87.4 90 150.7 178.7 150.7h.7c48.4-.2 93.9-19.2 128-53.6 34.1-34.4 52.8-80 52.6-128.4-.2-48.4-19.2-93.9-53.6-128-34.2-34-79.5-52.6-127.7-52.6h-.7c-88.6.3-163.6 63.9-178.2 151.2-1 5.9-6.5 9.8-12.4 8.8s-9.8-6.5-8.8-12.4C97.3 124.6 181.1 53.5 280.2 53.1h.8c53.9 0 104.6 20.9 142.9 58.9 38.4 38.2 59.7 89 59.9 143.2.2 54.2-20.7 105.2-58.9 143.6-38.2 38.4-89 59.7-143.2 59.9h-.8z"/></svg>