<svg baseProfile="tiny" xmlns="http://www.w3.org/2000/svg" viewBox="0 0 422.1 113.4"><path fill="none" d="M200 80.1c1.4-1.4 2.2-3.2 2.2-5.2V38.1c0-1.9-.8-3.8-2.2-5.2-1.4-1.4-3.3-2.2-5.2-2.2-2 0-3.8.8-5.2 2.2-1.4 1.4-2.2 3.2-2.2 5.2V75c0 2 .8 3.9 2.1 5.2 1.4 1.4 3.2 2.1 5.2 2.1s3.9-.8 5.3-2.2zm127.9-5.2V38.1c0-4-3.4-7.4-7.4-7.4-4.1 0-7.4 3.3-7.4 7.4V75c0 4.1 3.2 7.4 7.4 7.4 4.1-.1 7.4-3.4 7.4-7.5z"/><path fill="#164194" d="M371.8 43.2c-1.5-1.6-2.2-3.6-2-5.7.2-2.1 1.2-4.1 2.8-5.3 1.7-1.3 3.9-1.8 6-1.3 2.1.4 3.9 1.7 4.9 3.5.9 1.7 2.9 2.9 4.9 2.9 1 0 1.9-.3 2.7-.7 1.3-.8 2.3-2 2.7-3.5.4-1.5.2-3-.6-4.3-2.6-4.6-7.1-7.8-12.4-8.9-4.2-.9-8.8-.2-12.6 1.9l-.9.7c-3 1.4-5.4 4.8-5.6 5.1l-.8 1.4c-1.4 2.4-2.2 5.1-2.4 7.8-.4 4 .6 7.9 2.8 11.3l.9 1.3c.4.5 18.8 19.5 18.8 19.5 1.5 1.5 2.4 3.8 2.2 6.1-.2 2.3-1.3 4.3-3.2 5.7-1.7 1.3-4.1 1.9-6.3 1.4-1.4-.3-2.7-.9-3.7-1.8l-.8-.8-.6-.8c-.1-.1-.1-.2-.2-.3-1-1.8-2.9-2.9-4.9-2.9-1 0-2 .3-2.8.8-2.6 1.6-3.5 4.8-2.1 7.6l.1.1c2.8 4.7 7.4 8.1 12.8 9.1 1.2.3 2.5.4 3.7.4 4.1 0 8.3-1.4 11.6-3.9 4.3-3.2 7.1-8.3 7.6-13.8.4-5.5-1.6-10.9-5.4-14.8l-17.2-17.8zm-32.7 31.7V38.1c0-10.3-8.4-18.6-18.6-18.6-10.3 0-18.6 8.4-18.6 18.6V75c0 10.3 8.4 18.6 18.6 18.6 10.3-.1 18.6-8.4 18.6-18.7zm-26 0V38.1c0-4.1 3.3-7.4 7.4-7.4 4 0 7.4 3.4 7.4 7.4V75c0 4.1-3.3 7.4-7.4 7.4-4.1-.1-7.4-3.3-7.4-7.5zm-65.5-52.4c-1-1.9-3-3.1-5.1-3.1-.4 0-.8 0-1.1.1-2.6.5-4.4 2.8-4.4 5.5v1.3l30.9 64.1c1 1.9 3 3.1 5 3.1.5 0 .9-.1 1.3-.2 2.6-.5 4.4-2.8 4.4-5.5v-1.2s-30.1-62.4-30.9-64.1h-.1zm30.9 2.6c0-3.2-2.5-5.6-5.6-5.6-3.2 0-5.6 2.5-5.6 5.6v30.5l11.2 23.3V25.1zm-41.6 62.8c0 3.2 2.5 5.6 5.6 5.6 3.2 0 5.6-2.5 5.6-5.6V57.4l-11.2-23.3v53.8zm-29 .2c3.5-3.5 5.5-8.2 5.5-13.2V38.1c0-5-1.9-9.6-5.5-13.2-3.5-3.5-8.2-5.5-13.2-5.5s-9.6 1.9-13.2 5.5c-3.5 3.5-5.5 8.2-5.5 13.2V75c0 5 1.9 9.6 5.5 13.2 3.5 3.5 8.2 5.5 13.2 5.5 5-.2 9.7-2.1 13.2-5.6zm-20.5-13.2V38.1c0-2 .8-3.8 2.2-5.2 1.4-1.4 3.2-2.2 5.2-2.2 1.9 0 3.8.8 5.2 2.2 1.4 1.4 2.2 3.3 2.2 5.2V75c0 2-.8 3.8-2.2 5.2-1.4 1.4-3.2 2.2-5.2 2.2s-3.9-.8-5.2-2.1c-1.5-1.5-2.2-3.4-2.2-5.4zm-34.9-50.5c0-.2-.1-.3-.1-.4-.7-2.7-3.1-4.5-5.9-4.5-3.4 0-6.1 2.7-6.1 6v61.8c0 3.5 2.7 6.2 6.1 6.2 3.5 0 6.2-2.7 6.2-6.2V25.6c0-.3 0-.6-.1-1l-.1-.2z"/><path fill="#FFF" d="M0 0v113.4h113.4V0H0zm111.6 111.6H1.9V1.9h109.7v109.7z"/><path fill="#164194" d="M1.9 111.6h109.7V1.9H1.9v109.7zm76.5-80.9H97v51.6H86.7V39h-8.3v-8.3zM47.9 52.9c-4.7-6-5.6-8-5.6-11.8 0-6.4 5.4-11 13.1-11 7.1 0 12.2 4.8 12.2 11.3 0 4.8-2 8.3-8 13.3l8.9 12.1c.7-.7 1.4-4.8 1.3-8.1 0-.4-.1-1.6-.2-2.8h8.3c0 1.1.1 2.7.1 3.1 0 6.5-1 10.6-4.2 14.6l6.6 8.7H70.3L68 79.2c-3.8 3-7.1 4.1-12.4 4.1-10.4-.1-17.6-5.4-18.3-14.8-.4-5.6 3.4-11.5 10.6-15.6zM12.4 30.7H31v51.6H20.7V39h-8.3v-8.3z"/><path fill="#164194" d="M55.6 75.2c3.2 0 5.4-1.2 7.2-2.7l-9.8-13c-4.6 3-6.4 6-6.3 8.8.1 4.2 3.7 6.9 8.9 6.9zm4-33.9c0-2.3-1.6-3.8-4.2-3.8-2.5 0-4.3 1.6-4.3 3.9 0 2.1.6 3.3 3.6 7.1 3.6-2.6 4.9-4.9 4.9-7.2z"/><path fill="#FFF" d="M86.7 82.3H97V30.7H78.4V39h8.3zm-31.1 1c5.3 0 8.6-1.1 12.4-4.1l2.3 3.1h10.2l-6.6-8.7c3.1-4 4.2-8.1 4.2-14.6 0-.4-.1-2-.1-3.1h-8.3c.1 1.3.2 2.4.2 2.8.1 3.3-.5 7.4-1.3 8.1l-8.9-12.1c6-5 8-8.6 8-13.3 0-6.5-5.1-11.3-12.2-11.3-7.7 0-13.1 4.7-13.1 11 0 3.7 1 5.8 5.6 11.8-7.2 4.2-11 10-10.6 15.6.6 9.4 7.8 14.7 18.2 14.8zm-.2-45.8c2.6 0 4.2 1.5 4.2 3.8s-1.3 4.7-4.8 7.2c-3-3.8-3.6-5-3.6-7.1-.1-2.3 1.7-3.9 4.2-3.9zm-2.4 22l9.8 13c-1.9 1.5-4 2.7-7.2 2.7-5.2 0-8.8-2.7-8.9-7-.1-2.7 1.8-5.7 6.3-8.7zM20.6 82.3H31V30.7H12.4V39h8.2z"/></svg>