<svg xmlns="http://www.w3.org/2000/svg" width="123" height="27" viewBox="0 0 123 27" fill="none">
    <path d="M40.5977 26.539V0.299866H45.4462V26.539H40.5977Z" fill="#00c599"/>
    <path d="M48.747 12.3886C49.5799 10.9017 50.7237 9.71472 52.1782 8.82758C53.6328 7.94045 55.2303 7.49689 56.9708 7.49689C58.5621 7.49689 60.0913 7.86548 61.5582 8.60268C63.0252 9.33987 64.2373 10.4082 65.1946 11.8076C66.1519 13.207 66.6554 14.8563 66.7051 16.7555C66.73 17.5552 66.6803 18.3299 66.5559 19.0796H52.719C52.9428 20.0042 53.4339 20.7351 54.1922 21.2724C54.9506 21.8097 55.8768 22.0783 56.9708 22.0783C57.7416 22.0783 58.3694 21.9784 58.8543 21.7784C59.3391 21.5785 59.7804 21.3161 60.1783 20.9913L65.9592 21.0288C65.1884 22.753 64.0074 24.1525 62.416 25.227C60.8247 26.3016 59.0594 26.8388 57.12 26.8388C55.3546 26.8388 53.7385 26.4078 52.2715 25.5456C50.8045 24.6835 49.6421 23.5152 48.7843 22.0408C47.9265 20.5665 47.4976 18.9546 47.4976 17.2053C47.4976 15.4561 47.914 13.8755 48.747 12.3886ZM61.5209 15.1812C61.148 14.3066 60.5575 13.6006 59.7494 13.0633C58.9413 12.526 58.0648 12.2574 57.12 12.2574C56.0757 12.2574 55.1806 12.5198 54.4347 13.0446C53.6887 13.5694 53.1169 14.2816 52.719 15.1812H61.5209Z" fill="#00c599"/>
    <path d="M66.8916 7.79675H71.9639L76.2157 20.1291L80.5047 7.79675H85.577L78.6399 26.539H73.7914L66.8916 7.79675Z" fill="#00c599"/>
    <path d="M87.535 4.96668C86.9755 4.40442 86.6958 3.71096 86.6958 2.8863C86.6958 2.06164 86.9755 1.40567 87.535 0.843399C88.0944 0.281133 88.7844 0 89.6049 0C90.4254 0 91.0781 0.281133 91.6375 0.843399C92.197 1.40567 92.4767 2.08663 92.4767 2.8863C92.4767 3.68597 92.197 4.40442 91.6375 4.96668C91.0781 5.52895 90.4006 5.81008 89.6049 5.81008C88.8092 5.81008 88.0944 5.52895 87.535 4.96668ZM87.1807 7.79676H92.0292V26.539H87.1807V7.79676Z" fill="#00c599"/>
    <path d="M96.2996 4.96668C95.7402 4.40442 95.4604 3.71096 95.4604 2.8863C95.4604 2.06164 95.7402 1.40567 96.2996 0.843399C96.8591 0.281133 97.549 0 98.3696 0C99.1901 0 99.8428 0.281133 100.402 0.843399C100.962 1.40567 101.241 2.08663 101.241 2.8863C101.241 3.68597 100.962 4.40442 100.402 4.96668C99.8428 5.52895 99.1652 5.81008 98.3696 5.81008C97.5739 5.81008 96.8591 5.52895 96.2996 4.96668ZM95.9453 7.79676H100.794V26.539H95.9453V7.79676Z" fill="#00c599"/>
    <path d="M108.104 25.5456C106.637 24.6835 105.468 23.509 104.598 22.0221C103.728 20.5352 103.292 18.9171 103.292 17.1679C103.292 15.4186 103.728 13.8005 104.598 12.3136C105.468 10.8268 106.637 9.65224 108.104 8.7901C109.571 7.92796 111.174 7.49689 112.915 7.49689C114.655 7.49689 116.259 7.92796 117.726 8.7901C119.193 9.65224 120.356 10.8268 121.213 12.3136C122.071 13.8005 122.5 15.4186 122.5 17.1679V26.539H117.652V24.5523C117.378 25.177 116.781 25.7143 115.861 26.1641C114.941 26.6139 113.959 26.8388 112.915 26.8388C111.174 26.8388 109.571 26.4078 108.104 25.5456ZM116.346 20.6727C117.241 19.7355 117.689 18.5673 117.689 17.1679C117.689 15.7684 117.241 14.6002 116.346 13.6631C115.451 12.726 114.32 12.2574 112.952 12.2574C111.585 12.2574 110.441 12.726 109.521 13.6631C108.601 14.6002 108.141 15.7684 108.141 17.1679C108.141 18.5673 108.601 19.7355 109.521 20.6727C110.441 21.6098 111.585 22.0783 112.952 22.0783C114.32 22.0783 115.451 21.6098 116.346 20.6727Z" fill="#00c599"/>
    <path d="M32.5397 14.0041C32.5397 21.082 26.8173 26.8389 19.7848 26.8389C19.7489 26.8389 19.7116 26.8389 19.6758 26.8375H9.76345C4.65682 26.8375 0.5 22.656 0.5 17.516C0.5 12.8691 3.89752 9.00439 8.32354 8.30563C7.99635 9.42254 7.83069 10.5658 7.83069 11.7133C7.83069 11.98 7.83897 12.2412 7.85554 12.4871C7.86106 12.5663 7.86658 12.6455 7.87348 12.7247C7.58909 12.8386 7.31712 12.9775 7.06034 13.1386C5.60939 14.0499 4.64163 15.6711 4.64163 17.516C4.64163 20.3569 6.94024 22.6699 9.76345 22.6699H19.6744C19.6951 22.6713 19.7158 22.6713 19.7365 22.6713H19.7848C24.5339 22.6713 28.398 18.7829 28.398 14.0041C28.398 9.70871 25.2766 6.13432 21.1957 5.455C20.7457 5.37999 20.2846 5.3397 19.8152 5.33831H19.7848C19.7199 5.33831 19.6564 5.33831 19.5929 5.34109H19.5625C19.5115 5.34109 19.4604 5.34387 19.4093 5.34665C19.3541 5.34942 19.3002 5.3522 19.2464 5.35498C19.2381 5.35637 19.2298 5.35637 19.2216 5.35776C19.1636 5.36193 19.107 5.36609 19.049 5.37165C18.991 5.37721 18.9316 5.38276 18.8737 5.38971C18.824 5.39527 18.7743 5.40221 18.7246 5.40777C17.1866 5.61754 15.8875 6.29546 14.9281 7.3971C14.7141 7.64298 14.518 7.90971 14.3427 8.1931C14.2889 8.27784 14.2378 8.36536 14.1881 8.45288C14.0625 8.67793 13.9493 8.91132 13.8499 9.15026C13.5089 9.96432 13.3225 10.8492 13.3225 11.7133C13.3225 11.8703 13.3294 12.0967 13.3598 12.3607C13.4799 13.3998 13.9617 15.0043 15.7812 15.0432H15.8116C15.824 15.0446 15.8365 15.0446 15.8503 15.0446C16.5847 15.0446 17.1839 14.4431 17.1839 13.7026V13.6832C17.1728 12.9511 16.5778 12.3607 15.8503 12.3607H14.7817C14.7748 12.3093 14.7679 12.2565 14.761 12.2009C14.7431 12.0412 14.7334 11.8731 14.7334 11.7133C14.7334 11.0451 14.8784 10.345 15.1517 9.69065C15.2318 9.50033 15.3215 9.31418 15.4195 9.13775C15.4527 9.0808 15.4941 9.00717 15.5355 8.94188L15.5396 8.93493L15.5452 8.92799C15.639 8.77518 15.7412 8.62931 15.8503 8.49039C15.8972 8.42927 15.9469 8.36953 15.9966 8.31257C16.0297 8.27368 16.0642 8.23617 16.1001 8.19866C19.0034 8.33063 21.3255 10.7492 21.3255 13.7026C21.3255 15.5614 20.4074 17.2062 19.002 18.205C18.4636 18.5884 17.8521 18.876 17.1922 19.0441C16.7628 19.1538 16.3141 19.2122 15.8503 19.2122C15.8378 19.2122 15.8254 19.2122 15.8116 19.2108C15.8061 19.2122 15.8006 19.2108 15.795 19.2108H15.7398C15.7302 19.2108 15.7191 19.2108 15.7094 19.2094H15.7081C15.7081 19.2094 15.7025 19.2108 15.6998 19.2094H15.6667C15.657 19.2094 15.6459 19.208 15.6363 19.208C15.6239 19.2066 15.6114 19.2066 15.599 19.2052C15.2801 19.1941 14.9695 19.1622 14.6671 19.1094C13.7753 18.9538 12.9635 18.6259 12.2553 18.1495C10.5186 16.9881 9.40036 14.9432 9.23332 12.3912C9.21813 12.169 9.21123 11.9425 9.21123 11.7133C9.21123 10.5353 9.41279 9.35725 9.79382 8.24034C9.79796 8.22505 9.80348 8.20838 9.81039 8.1931C10.2577 6.89282 10.948 5.67866 11.8425 4.65066C13.0146 3.30453 14.9929 1.7403 18.0564 1.29437C18.1544 1.28048 18.2552 1.26797 18.356 1.25547C18.4581 1.24297 18.5603 1.23185 18.6638 1.22352C18.6887 1.22074 18.7135 1.21796 18.737 1.21657C18.8322 1.20824 18.9275 1.20129 19.0241 1.19574C19.0462 1.19435 19.0669 1.19296 19.0876 1.19157C19.1788 1.18601 19.2699 1.18184 19.3624 1.17907C19.4369 1.17629 19.5115 1.1749 19.5874 1.17212C19.6523 1.17212 19.7185 1.17212 19.7848 1.17212H19.8152C20.2818 1.17212 20.7429 1.1999 21.1957 1.2513C27.5669 1.9584 32.5397 7.40821 32.5397 14.0055V14.0041Z" fill="#00c599"/>
</svg>