<?xml version="1.0" encoding="utf-8"?>
<!-- Generator: Adobe Illustrator 16.0.0, SVG Export Plug-In . SVG Version: 6.00 Build 0)  -->
<!DOCTYPE svg PUBLIC "-//W3C//DTD SVG 1.1//EN" "http://www.w3.org/Graphics/SVG/1.1/DTD/svg11.dtd">
<svg version="1.1" id="Layer_1" xmlns="http://www.w3.org/2000/svg" xmlns:xlink="http://www.w3.org/1999/xlink" x="0px" y="0px"
	 width="1500px" height="389.456px" viewBox="0 0 1500 389.456" enable-background="new 0 0 1500 389.456" xml:space="preserve">
<g>
	<defs>
		<rect id="SVGID_1_" width="1500" height="389.456"/>
	</defs>
	<clipPath id="SVGID_2_">
		<use xlink:href="#SVGID_1_"  overflow="visible"/>
	</clipPath>
	<path clip-path="url(#SVGID_2_)" fill-rule="evenodd" clip-rule="evenodd" fill="#FFFFFF" d="M471.173,193.622
		c0,94.17-76.339,170.509-170.509,170.509c-94.169,0-170.509-76.339-170.509-170.509c0-94.169,76.34-170.509,170.509-170.509
		C394.833,23.113,471.173,99.453,471.173,193.622"/>
	<path clip-path="url(#SVGID_2_)" fill-rule="evenodd" clip-rule="evenodd" fill="#1BBED0" d="M302.912,49.458
		c-78.511,0-142.184,63.668-142.184,142.18c0,78.509,63.673,142.184,142.184,142.184c78.511,0,142.184-63.675,142.184-142.184
		C445.096,113.125,381.423,49.458,302.912,49.458 M324.544,228.729h-46.358v37.098c0,10.255-8.287,18.543-18.544,18.543
		c-10.266,0-18.548-8.288-18.548-18.543V129.818c0-10.261,8.282-18.542,18.548-18.542h64.902c32.461,0,58.735,26.272,58.735,58.723
		C383.279,202.455,357.005,228.729,324.544,228.729"/>
	<path clip-path="url(#SVGID_2_)" fill-rule="evenodd" clip-rule="evenodd" fill="#1BBED0" d="M327.638,148.611l-49.424,0.003
		l-0.036,42.769l49.46,0.005c10.516-1.477,18.544-10.506,18.544-21.389C346.182,159.126,338.154,150.093,327.638,148.611"/>
	<path clip-path="url(#SVGID_2_)" fill-rule="evenodd" clip-rule="evenodd" fill="#1BBED0" d="M558.963,208.021
		c-4.88,27.264-20.768,42.35-43.027,52.109c22.384-14.958,37.092-40.425,37.092-69.359c0-41.414-30.287-75.726-69.915-82.218
		c10.45,21.638,12.111,38.392,9.893,58.665C481.015,72.945,400.454,0,302.912,0C197.079,0,111.275,85.803,111.275,191.638
		c0,17.742,2.413,34.932,6.919,51.247c-8.465-21.577-13.101-45.124-13.101-69.792c0-23.054,4.078-45.189,11.565-65.712
		C50.318,119.433,0,177.486,0,247.276c0,76.472,60.336,138.962,136.002,142.18h374.062c51.738-2.158,95.76-46.423,95.76-98.662
		C605.824,254.941,587.896,224.893,558.963,208.021 M302.912,352.363c-88.768,0-160.728-71.955-160.728-160.726
		c0-88.774,71.96-160.728,160.728-160.728S463.64,102.864,463.64,191.638C463.64,280.408,391.68,352.363,302.912,352.363"/>
	<path clip-path="url(#SVGID_2_)" fill="#272828" d="M717.513,155.147c0-9.906,8.005-17.911,17.911-17.911
		c9.906,0,17.93,8.005,17.93,17.911v1.651c8.716-11.787,20.733-20.522,39.373-20.522c29.468,0,57.515,23.114,57.515,65.309v0.48
		c0,42.194-27.586,65.309-57.515,65.309c-19.101,0-30.888-8.735-39.373-18.871v37.722c0,9.906-8.024,17.931-17.93,17.931
		c-9.906,0-17.911-8.024-17.911-17.931V155.147z M814.4,202.065v-0.48c0-20.982-14.129-34.881-30.869-34.881
		c-16.739,0-30.658,13.899-30.658,34.881v0.48c0,20.981,13.919,34.899,30.658,34.899C800.271,236.965,814.4,223.278,814.4,202.065"
		/>
	<path clip-path="url(#SVGID_2_)" fill="#272828" d="M861.485,182.964v-0.461c0-46.918,35.36-85.35,86.061-85.35
		c24.745,0,41.485,6.604,55.172,16.74c3.764,2.822,7.065,8.005,7.065,14.378c0,9.906-8.024,17.681-17.911,17.681
		c-4.953,0-8.255-1.881-10.846-3.532c-10.136-7.545-20.752-11.787-33.71-11.787c-27.836,0-47.878,23.094-47.878,51.39v0.48
		c0,28.278,19.581,51.852,47.878,51.852c15.318,0,25.455-4.703,35.82-12.958c2.843-2.361,6.604-4.012,10.848-4.012
		c9.195,0,16.97,7.544,16.97,16.739c0,5.664-2.822,10.137-6.124,12.978c-14.857,12.958-32.289,20.733-58.705,20.733
		C897.557,267.835,861.485,230.362,861.485,182.964"/>
	<path clip-path="url(#SVGID_2_)" fill="#272828" d="M1029.032,109.4c0-9.887,8.023-17.911,17.93-17.911s17.911,8.024,17.911,17.911
		v139.104c0,9.904-8.005,17.93-17.911,17.93s-17.93-8.025-17.93-17.93V109.4z"/>
	<path clip-path="url(#SVGID_2_)" fill="#272828" d="M1080.781,202.525v-0.461c0-36.302,29.237-65.788,68.61-65.788
		c39.144,0,68.131,29.007,68.131,65.308v0.479c0,36.303-29.237,65.771-68.61,65.771
		C1109.789,267.835,1080.781,238.847,1080.781,202.525 M1182.162,202.525v-0.461c0-18.621-13.438-34.899-33.25-34.899
		c-20.502,0-32.77,15.799-32.77,34.42v0.479c0,18.622,13.438,34.901,33.249,34.901
		C1169.895,236.966,1182.162,221.166,1182.162,202.525"/>
	<path clip-path="url(#SVGID_2_)" fill="#272828" d="M1349.566,248.503c0,9.906-8.006,17.93-17.911,17.93
		c-9.906,0-17.911-8.023-17.911-17.93v-1.4c-8.255,10.596-18.871,20.271-37.031,20.271c-27.107,0-42.906-17.93-42.906-46.918
		v-65.309c0-9.906,8.025-17.911,17.931-17.911c9.887,0,17.911,8.005,17.911,17.911v53.983c0,16.989,8.024,25.705,21.692,25.705
		s22.403-8.716,22.403-25.705v-53.983c0-9.906,8.005-17.911,17.911-17.911c9.905,0,17.911,8.005,17.911,17.911V248.503z"/>
	<path clip-path="url(#SVGID_2_)" fill="#272828" d="M1500,248.503c0,9.906-8.005,17.931-17.911,17.931s-17.911-8.024-17.911-17.931
		v-1.65c-8.734,11.787-20.752,20.521-39.373,20.521c-29.468,0-57.534-23.114-57.534-65.309v-0.48
		c0-42.195,27.587-65.309,57.534-65.309c19.102,0,30.889,8.735,39.373,18.871V109.4c0-9.886,8.005-17.911,17.911-17.911
		S1500,99.514,1500,109.4V248.503z M1403.112,201.585v0.48c0,20.981,14.147,34.899,30.888,34.899s30.639-13.918,30.639-34.899v-0.48
		c0-20.982-13.898-34.881-30.639-34.881S1403.112,180.372,1403.112,201.585"/>
</g>
</svg>
