<svg width="417" height="92" viewBox="0 0 417 92" xmlns="http://www.w3.org/2000/svg"><title>Target speech (fatter) Copy 4</title><g fill="none" fill-rule="evenodd"><path d="M47.523 91.666a48.958 48.958 0 0 0 18.575-3.631c.137-.069.251-.114.388-.16.023 0 .046 0 .046-.023a7.362 7.362 0 0 1 2.559-.457c.982 0 1.919.183 2.764.549 12.42 3.578 19.817 4.264 22.192 2.056s-.308-7.27-8.049-15.188c0-1.21.343-2.352.891-3.334a7.99 7.99 0 0 1 .571-.845C92.235 63.486 95 54.99 95 45.88 95.046 20.53 73.775 0 47.523 0 21.27 0 0 20.53 0 45.833c0 25.326 21.271 45.833 47.523 45.833z" fill-rule="nonzero" fill="#1884FF"/><g transform="translate(21 19)"><circle stroke="#FFF" stroke-width="10" cx="27" cy="27" r="27"/><circle fill="#FFF" cx="27" cy="27" r="9"/></g><path d="M147.548 39.096c0 8.496-5.544 13.176-11.232 14.112l7.992 12.96c.36.648.576 1.368.576 2.088 0 2.016-1.728 4.176-4.248 4.176-1.44 0-2.808-.72-3.6-2.088l-9.576-16.2h-8.28v14.04c0 2.304-1.944 4.248-4.392 4.248-2.304 0-4.176-1.944-4.176-4.248V29.16c0-2.808 2.304-5.184 5.184-5.184h16.056c9.504 0 15.696 6.192 15.696 15.12zm-16.92-7.56H119.18v15.048h11.448c4.68 0 8.136-2.952 8.136-7.488 0-4.608-3.456-7.56-8.136-7.56zm54.512 21.816c0 2.016-1.656 3.744-3.744 3.744H158.5c.504 5.184 4.464 9.576 10.944 9.576 2.52 0 5.4-.792 7.776-2.304a3.282 3.282 0 0 1 1.584-.432c1.584 0 3.24 1.296 3.24 3.168 0 3.96-8.928 5.76-13.392 5.76-10.44 0-18.216-7.272-18.216-18.288 0-10.08 7.344-18.216 17.64-18.216 8.136 0 14.04 4.896 16.2 12.384.432 1.44.864 3.096.864 4.608zm-7.416-1.584c-.144-4.032-2.88-9.216-9.648-9.216-6.336 0-9.288 5.04-9.648 9.216h19.296zm62-11.304c0-1.944-1.584-3.672-3.816-3.672-1.656 0-3.24 1.08-3.672 2.664l-6.624 22.824-7.344-22.464c-.648-1.8-2.304-3.024-4.176-3.024-2.088 0-3.744 1.224-4.32 3.024l-7.344 22.464-6.624-22.824c-.432-1.584-2.016-2.664-3.672-2.664-2.304 0-3.816 1.872-3.816 3.672 0 .36.072.72.144 1.08l8.496 27.216c.648 2.16 2.664 3.672 4.896 3.672h.144c2.304 0 4.392-1.512 5.04-3.672l6.984-22.104 6.984 22.104c.648 2.16 2.664 3.672 4.968 3.672h.144c2.232 0 4.32-1.512 4.968-3.672l8.424-27.216c.144-.36.216-.72.216-1.08zm34.28 28.152c0 2.088-1.728 3.816-3.816 3.816h-.432c-1.008 0-3.456-.864-3.456-3.528v-.648c-2.52 2.952-6.624 4.608-11.16 4.608-5.688 0-12.168-3.816-12.168-11.52 0-7.992 6.48-11.304 12.168-11.304 4.608 0 8.712 1.512 11.16 4.464v-5.328c0-3.96-3.312-6.408-8.064-6.408-3.024 0-5.76.792-8.28 2.664-.432.288-1.008.504-1.584.504-1.44 0-3.024-1.152-3.024-3.024 0-.576.216-1.224.576-1.656 2.736-3.456 9.144-4.896 13.536-4.896 7.704 0 14.544 3.24 14.544 12.6v19.656zm-7.704-4.608v-5.184c-1.728-2.304-4.896-3.456-8.208-3.456-4.104 0-7.272 2.304-7.272 6.12 0 3.672 3.168 6.048 7.272 6.048 3.312 0 6.48-1.152 8.208-3.528zm35.864-23.904c0-1.872-1.296-3.312-3.384-3.312-3.672 0-6.408 3.024-8.28 5.544v-1.8c0-2.016-1.728-3.744-3.744-3.744-2.304 0-3.96 1.728-3.96 3.744v28.08c0 2.088 1.656 3.816 3.744 3.816h.144c2.088 0 3.816-1.728 3.816-3.816V48.384c1.872-2.664 4.824-3.96 7.92-4.248 2.16-.288 3.744-1.728 3.744-4.032zm36.8 28.512c0 2.088-1.728 3.816-3.888 3.816a3.795 3.795 0 0 1-3.816-3.816v-1.368c-2.736 3.528-6.696 5.616-11.16 5.616-8.856 0-15.408-6.768-15.408-18.216 0-11.232 6.48-18.288 15.408-18.288 4.32 0 8.352 2.016 11.16 5.616V27.36c0-2.088 1.656-3.816 3.96-3.816 2.016 0 3.744 1.728 3.744 3.816v41.256zm-7.704-7.128v-13.68c-1.728-2.592-5.328-4.608-8.928-4.608-5.904 0-9.72 4.752-9.72 11.448 0 6.624 3.816 11.376 9.72 11.376 3.6 0 7.2-2.016 8.928-4.536zm37.088-34.344c0-2.448-3.744-3.888-7.704-3.888-6.696 0-11.088 4.464-11.088 11.808v2.16h-2.88c-1.8 0-3.312 1.512-3.312 3.312 0 1.944 1.512 3.456 3.312 3.456h2.88v24.624c0 2.088 1.728 3.816 3.816 3.816 2.232 0 3.96-1.728 3.96-3.816V43.992h4.176c1.8 0 3.312-1.512 3.312-3.312 0-1.944-1.512-3.456-3.312-3.456h-4.176v-2.16c0-3.672 1.8-5.688 4.752-5.688 1.512 0 2.448.72 3.528.72 1.296 0 2.736-1.08 2.736-2.952zm31.904 41.472v-28.08c0-2.016-1.728-3.744-3.744-3.744-2.304 0-3.96 1.728-3.96 3.744V61.56c-1.8 2.304-5.04 4.464-8.856 4.464-4.176 0-6.912-1.656-6.912-6.984V40.536c0-2.016-1.728-3.744-3.744-3.744-2.304 0-3.96 1.728-3.96 3.744v21.312c0 7.056 3.672 11.016 11.16 11.016 5.472 0 9.792-2.664 12.312-5.472v1.224a3.795 3.795 0 0 0 3.816 3.816c2.16 0 3.888-1.728 3.888-3.816zm16.424 0V27.288c0-2.016-1.728-3.744-3.744-3.744-2.304 0-3.96 1.728-3.96 3.744v41.328a3.795 3.795 0 0 0 3.816 3.816c2.16 0 3.888-1.728 3.888-3.816z" fill="#383A3C"/></g></svg>