<svg version="1.2" xmlns="http://www.w3.org/2000/svg" viewBox="0 0 348 83" width="348" height="83">
	<title>logo__on-white-ai</title>
	<style>
		.s0 { fill: #142149 } 
		.s1 { fill: #c9f4ff } 
		.s2 { fill: #51b9ff } 
		.s3 { fill: #007bfc } 
	</style>
	<g id="logo__on-white">
		<g id="text">
			<path id="&lt;Compound Path&gt;" fill-rule="evenodd" class="s0" d="m348 61.4c0 1.3-1.1 2.4-2.4 2.4h-1.6c-0.9 0-1.7-0.5-2.1-1.2l-9.5-16.4h-14v15.2c0 1.3-1.1 2.4-2.4 2.4c-0.3 0-1.3 0-1.6 0c-1.3 0-2.4-1.1-2.4-2.4v-40c0-1.3 1.1-2.4 2.4-2.4h19.2c7.5 0 13.6 6.1 13.6 13.6c0 5.6-3.4 10.4-8.3 12.5l8.8 15.1q0.3 0.6 0.3 1.2zm-29.6-21.6h15.2c4 0 7.2-3.2 7.2-7.2c0-4-3.2-7.2-7.2-7.2h-15.2z" />
			<path id="&lt;Path&gt;" class="s0" d="m300.8 21.4c0 0.3 0 1.3 0 1.6c0 1.3-1.1 2.4-2.4 2.4h-13.6v36c0 1.3-1.1 2.4-2.4 2.4c-0.3 0-1.3 0-1.6 0c-1.3 0-2.4-1.1-2.4-2.4v-36h-13.6c-1.3 0-2.4-1.1-2.4-2.4c0-0.3 0-1.3 0-1.6c0-1.3 1.1-2.4 2.4-2.4h33.6c1.3 0 2.4 1.1 2.4 2.4z" />
			<path id="&lt;Path&gt;" class="s0" d="m265.6 59.8c0 0.3 0 1.3 0 1.6c0 1.3-1.1 2.4-2.4 2.4h-25.6c-1.3 0-2.4-1.1-2.4-2.4v-40c0-1.3 1.1-2.4 2.4-2.4c0.3 0 1.3 0 1.6 0c1.3 0 2.4 1.1 2.4 2.4v36h21.6c1.3 0 2.4 1.1 2.4 2.4z" />
			<path id="&lt;Path&gt;" class="s0" d="m222.4 46.2c0 10.2-8.2 18.4-18.4 18.4c-10.2 0-18.4-8.2-18.4-18.4v-24.8c0-1.3 1.1-2.4 2.4-2.4c0.3 0 1.3 0 1.6 0c1.3 0 2.4 1.1 2.4 2.4v24.8c0 6.6 5.4 12 12 12c6.6 0 12-5.4 12-12v-24.8c0-1.3 1.1-2.4 2.4-2.4c0.3 0 1.3 0 1.6 0c1.3 0 2.4 1.1 2.4 2.4z" />
			<path id="&lt;Path&gt;" class="s0" d="m176 21.4q0 0.5-0.2 0.9l-16 40c-0.3 0.9-1.2 1.5-2.2 1.5h-3.2c-1 0-1.9-0.6-2.2-1.5l-16-40q-0.2-0.4-0.2-0.9c0-1.3 1.1-2.4 2.4-2.4h1.5c1 0 1.9 0.6 2.2 1.5l13.9 34.7l13.9-34.7c0.3-0.9 1.2-1.5 2.2-1.5h1.5c1.3 0 2.4 1.1 2.4 2.4z" />
		</g>
		<g id="sygnet">
			<path id="&lt;Path&gt;" class="s1" d="m38.5 10l-32.7 5.2l-5.1-8c-0.4-0.8-0.7-1.7-0.7-2.6c0-2.7 2.1-4.8 4.8-4.8h24.6c1.7 0 3.2 0.9 4 2.2z" />
			<path id="&lt;Path&gt;" class="s2" d="m45.6 21.2l-32.8 5.2l-7-11.2c-0.5-0.8-0.8-1.7-0.8-2.6c0-2.7 2.2-4.8 4.8-4.8h24.6c1.7 0 3.2 0.9 4.1 2.2z" />
			<path id="&lt;Path&gt;" class="s3" d="m12.8 26.4c-0.4-0.8-0.7-1.7-0.7-2.6c0-2.7 2.2-4.8 4.8-4.8h24.6c1.7 0 3.2 0.9 4.1 2.2l22 34.9c0.4 0.8 0.7 1.7 0.7 2.6c0 0.9-0.3 1.8-0.7 2.6l-12.3 19.5c-0.9 1.3-2.4 2.2-4.1 2.2c-1.7 0-3.2-0.9-4.1-2.2z" />
			<path id="&lt;Path&gt;" class="s3" d="m56.2 7.2c-0.5-0.8-0.8-1.7-0.8-2.6c0-2.7 2.2-4.8 4.8-4.8h24.6c1.7 0 3.2 0.9 4.1 2.2l6.4 10.2c0.4 0.7 0.7 1.6 0.7 2.6c0 0.9-0.3 1.8-0.7 2.5l-8.1 12.8l-4.2 6.7c-0.9 1.4-2.4 2.3-4.1 2.3c-1.7 0-3.2-0.9-4.1-2.3z" />
		</g>
	</g>
</svg>